<svg width="265" height="157" viewBox="0 0 265 157" fill="none" xmlns="http://www.w3.org/2000/svg">
<path d="M60.07 124.93C57.41 124.93 54.75 124.93 52.09 124.93C51.85 124.93 51.61 124.93 51.37 124.93C51.04 124.93 50.86 125.07 50.86 125.42C50.86 125.62 50.86 125.83 50.86 126.03C50.86 131.08 50.86 136.13 50.86 141.18C50.86 141.35 50.86 141.52 50.86 141.69C50.84 142.14 51.08 142.28 51.49 142.3C52.31 142.33 53.13 142.37 53.94 142.42C54.18 142.43 54.41 142.47 54.65 142.52C54.86 142.56 54.9 142.72 54.9 142.9C54.9 143.08 54.85 143.26 54.65 143.29C54.42 143.33 54.18 143.33 53.94 143.33C50.9 143.34 47.87 143.35 44.83 143.36C44.66 143.36 44.49 143.36 44.32 143.36C44.1 143.35 43.91 143.31 43.9 143.03C43.89 142.75 44.01 142.58 44.3 142.54C44.91 142.46 45.52 142.38 46.12 142.31C47.26 142.17 47.39 142.04 47.39 140.91C47.39 129.82 47.39 118.73 47.39 107.65C47.39 106.44 47.29 106.36 46.04 106.26C45.5 106.22 44.96 106.13 44.41 106.09C44.02 106.06 43.86 105.89 43.89 105.51C43.93 105.1 44.24 105.16 44.5 105.16C45.45 105.14 46.41 105.13 47.36 105.13C49.47 105.13 51.59 105.11 53.7 105.11C53.94 105.11 54.18 105.11 54.42 105.11C54.77 105.11 54.9 105.3 54.9 105.63C54.9 105.94 54.71 106.03 54.44 106.06C53.56 106.14 52.68 106.22 51.79 106.29C50.88 106.36 50.86 106.36 50.86 107.22C50.86 112.47 50.86 117.73 50.86 122.98C50.86 123.85 50.88 123.87 51.8 123.87C57.36 123.87 62.92 123.87 68.48 123.87C69.44 123.87 69.45 123.86 69.45 122.91C69.45 117.83 69.45 112.74 69.45 107.66C69.45 106.54 69.26 106.37 68.16 106.28C67.58 106.23 67.01 106.14 66.43 106.1C66.05 106.08 65.86 105.9 65.88 105.53C65.91 105.14 66.23 105.17 66.49 105.17C67.38 105.16 68.26 105.15 69.15 105.14C71.16 105.14 73.18 105.12 75.19 105.12C75.33 105.12 75.46 105.12 75.6 105.12C75.96 105.12 76.31 105.11 76.32 105.61C76.32 106.05 76 106.06 75.69 106.09C75.01 106.16 74.33 106.24 73.66 106.31C72.95 106.38 72.94 106.38 72.93 107.1C72.92 107.61 72.93 108.12 72.93 108.64C72.93 119.45 72.93 130.27 72.93 141.08C72.93 142.5 72.82 142.29 74.2 142.36C74.95 142.4 75.7 142.47 76.44 142.52C76.74 142.54 76.86 142.68 76.84 142.98C76.82 143.22 76.7 143.35 76.45 143.36C76.28 143.36 76.11 143.36 75.94 143.36C72.87 143.36 69.8 143.38 66.73 143.39C66.59 143.39 66.46 143.39 66.32 143.39C66.11 143.39 65.89 143.36 65.89 143.08C65.89 142.82 65.99 142.61 66.29 142.58C66.9 142.5 67.51 142.41 68.11 142.35C69.25 142.22 69.45 142.02 69.45 140.87C69.45 135.89 69.45 130.91 69.45 125.93C69.45 124.99 69.44 124.98 68.47 124.98C65.67 124.98 62.88 124.98 60.08 124.98L60.07 124.93Z" fill="#D6AD60"/>
<path d="M8.36006 123.69C8.16006 124.12 8.23006 124.43 8.23006 124.73C8.23006 130.19 8.23006 135.65 8.23006 141.1C8.23006 141.24 8.23006 141.37 8.23006 141.51C8.25006 142.26 8.25006 142.27 9.05006 142.31C9.73006 142.35 10.4101 142.35 11.0901 142.42C11.4201 142.45 11.9401 142.33 11.8901 142.93C11.8401 143.52 11.3401 143.29 11.0101 143.32C10.6701 143.35 10.3301 143.34 9.99006 143.34C7.36006 143.36 4.74006 143.39 2.11006 143.41C1.87006 143.41 1.63006 143.41 1.39006 143.41C1.13006 143.41 0.91006 143.37 0.91006 143.03C0.91006 142.76 1.01006 142.57 1.31006 142.54C1.82006 142.47 2.32006 142.4 2.83006 142.33C3.13006 142.29 3.44006 142.24 3.74006 142.19C4.18006 142.12 4.40006 141.87 4.41006 141.43C4.41006 141.16 4.42006 140.88 4.42006 140.61C4.42006 129.73 4.42006 118.85 4.42006 107.97C4.42006 107.77 4.42006 107.56 4.42006 107.36C4.37006 106.55 4.18006 106.35 3.38006 106.27C2.74006 106.2 2.09006 106.13 1.45006 106.08C1.07006 106.05 0.88006 105.91 0.91006 105.51C0.94006 105.1 1.25006 105.15 1.51006 105.14C4.75006 105.12 7.99006 105.1 11.2301 105.09C11.5001 105.09 11.8001 105.04 11.8801 105.42C11.9501 105.78 11.8401 106.01 11.4301 106.04C10.5801 106.1 9.73006 106.21 8.88006 106.25C8.42006 106.27 8.21006 106.41 8.22006 106.91C8.24006 112.23 8.25006 117.55 8.26006 122.87C8.26006 122.9 8.29006 122.92 8.32006 122.97C8.64006 123 8.75006 122.7 8.91006 122.51C13.0301 117.6 17.1401 112.68 21.2501 107.76C21.2901 107.71 21.3401 107.66 21.3801 107.6C21.6201 107.3 21.9001 106.99 21.7001 106.59C21.5301 106.24 21.1301 106.28 20.7901 106.25C20.1801 106.19 19.5701 106.11 18.9601 106.07C18.5801 106.04 18.3901 105.88 18.4201 105.5C18.4501 105.1 18.7601 105.14 19.0301 105.13C19.9501 105.12 20.8701 105.11 21.7901 105.1C23.8701 105.1 25.9501 105.08 28.0301 105.08C28.2301 105.08 28.4401 105.08 28.6401 105.08C28.9101 105.08 29.0901 105.18 29.1101 105.49C29.1301 105.82 29.0001 106 28.6601 106.03C27.8801 106.1 27.1001 106.17 26.3201 106.25C25.9801 106.28 25.6401 106.32 25.3001 106.34C24.7201 106.36 24.3201 106.63 23.9301 107.08C19.9701 111.73 15.9901 116.35 12.0101 120.98C11.9201 121.08 11.8401 121.19 11.7401 121.29C11.3301 121.67 11.4101 122.02 11.7401 122.43C13.0201 124.02 14.2801 125.64 15.5401 127.25C19.2501 131.96 22.9801 136.67 26.6601 141.4C27.1601 142.05 27.6801 142.45 28.5201 142.37C28.7901 142.35 29.0601 142.4 29.3401 142.42C29.6601 142.45 29.9601 142.47 29.9401 142.93C29.9201 143.33 29.6401 143.33 29.3601 143.33C29.2901 143.33 29.2201 143.33 29.1601 143.33C27.6901 143.36 26.2301 143.36 24.7601 143.42C24.1801 143.44 23.8101 143.22 23.4701 142.78C19.0201 137.13 14.5501 131.49 10.0901 125.85C9.54006 125.16 8.98006 124.47 8.36006 123.69Z" fill="#D6AD60"/>
<path d="M144.93 143.36C142.71 143.36 140.49 143.36 138.28 143.36C138.04 143.36 137.8 143.36 137.56 143.36C137.35 143.36 137.14 143.33 137.13 143.05C137.13 142.79 137.22 142.59 137.52 142.55C138.09 142.48 138.67 142.39 139.24 142.32C140.51 142.17 140.66 142.01 140.66 140.71C140.66 129.72 140.66 118.74 140.66 107.75C140.66 106.49 140.54 106.37 139.28 106.25C138.7 106.19 138.13 106.11 137.55 106.05C137.27 106.02 137.11 105.89 137.11 105.6C137.11 105.27 137.27 105.1 137.62 105.11C137.82 105.11 138.03 105.11 138.23 105.11C142.36 105.11 146.49 105.11 150.61 105.11C152.84 105.11 155.03 105.43 157.13 106.2C161.97 107.99 164.9 111.45 166.04 116.46C166.43 118.16 166.67 119.88 166.7 121.62C166.76 125.17 166.72 128.71 165.87 132.19C165.66 133.05 165.41 133.9 165.11 134.74C163.59 139.01 160.57 141.61 156.21 142.69C154.18 143.19 152.11 143.34 150.02 143.35C148.31 143.35 146.61 143.35 144.9 143.35C144.9 143.35 144.9 143.37 144.9 143.38L144.93 143.36ZM144.4 124.18C144.4 125.88 144.4 127.59 144.4 129.29C144.4 133.38 144.4 137.47 144.4 141.56C144.4 142.48 144.41 142.5 145.27 142.49C147.59 142.47 149.9 142.58 152.21 142.32C154.9 142.02 157.3 141.09 159.19 139.09C160.34 137.88 160.99 136.37 161.53 134.82C162.53 131.93 162.84 128.91 162.98 125.88C163.07 123.84 163.04 121.79 162.84 119.75C162.65 117.88 162.33 116.04 161.75 114.25C159.97 108.78 155.26 106 150.64 106C148.83 106 147.03 106 145.22 106C144.42 106 144.42 106.02 144.4 106.78C144.4 107.02 144.4 107.26 144.4 107.5C144.4 113.06 144.4 118.61 144.4 124.17V124.18Z" fill="#D6AD60"/>
<path d="M129.54 0.850227C130.9 0.870227 132.05 1.41022 133.02 2.34022C135.14 4.37022 137.25 6.40023 139.37 8.43023C144.42 13.2602 149.47 18.0902 154.54 22.9002C156.56 24.8202 156.78 27.6302 155.03 29.8102C154.86 30.0202 154.67 30.2202 154.49 30.4202C150.48 34.6002 146.47 38.7802 142.46 42.9702C139.65 45.9002 136.85 48.8302 134.05 51.7702C133.35 52.5102 132.52 53.0102 131.52 53.2202C129.67 53.6102 128.1 53.0602 126.75 51.7602C124.44 49.5302 122.13 47.3202 119.82 45.1002C115.14 40.6202 110.46 36.1502 105.78 31.6702C105.53 31.4302 105.29 31.2002 105.05 30.9502C103.26 29.0602 103.22 26.2102 104.97 24.2702C105.84 23.3102 106.74 22.3802 107.64 21.4502C111.7 17.2202 115.76 12.9902 119.81 8.75023C121.72 6.76023 123.62 4.75023 125.52 2.75023C126.79 1.41023 127.99 0.840227 129.55 0.850227H129.54ZM117.43 41.1802C117.66 41.3302 117.83 41.4002 117.95 41.5102C121.21 44.6202 124.45 47.7402 127.71 50.8402C129.47 52.5202 131.61 52.4402 133.31 50.6702C136.18 47.6602 139.06 44.6602 141.94 41.6502C142.15 41.4302 142.35 41.1902 142.57 40.9802C142.9 40.6502 142.92 40.3502 142.54 40.0402C142.33 39.8702 142.15 39.6602 141.95 39.4702C138.89 36.5502 135.84 33.6202 132.78 30.7002C132.58 30.5102 132.39 30.3202 132.2 30.1202C131.96 29.8602 131.93 29.5702 132.18 29.3002C132.42 29.0402 132.72 28.9802 133.01 29.1802C133.23 29.3302 133.42 29.5302 133.62 29.7202C136.8 32.7602 139.98 35.7902 143.16 38.8402C144.01 39.6502 143.94 39.5302 144.66 38.7802C145.92 37.4802 147.16 36.1702 148.41 34.8602C150.18 33.0102 151.94 31.1602 153.72 29.3202C154.52 28.4902 154.94 27.5402 154.88 26.3702C154.82 25.3102 154.32 24.5002 153.58 23.8002C151.08 21.4302 148.59 19.0502 146.1 16.6702C141.44 12.2202 136.79 7.76023 132.12 3.31023C130.46 1.73023 128.35 1.76023 126.76 3.39023C125.69 4.48023 124.64 5.61023 123.58 6.72023C121.5 8.89023 119.42 11.0502 117.35 13.2202C116.89 13.7002 116.9 13.7102 117.38 14.1802C121.32 17.9502 125.27 21.7202 129.21 25.4902C129.91 26.1602 129.92 26.1702 130.55 25.5102C133.41 22.5302 136.25 19.5502 139.11 16.5702C139.51 16.1502 139.91 15.7402 140.34 15.3402C140.56 15.1302 140.84 15.1302 141.09 15.3102C141.38 15.5202 141.44 15.8302 141.29 16.1302C141.17 16.3702 140.97 16.5602 140.78 16.7602C137.79 19.8902 134.8 23.0202 131.8 26.1502C127.7 30.4302 123.59 34.7202 119.48 39.0002C118.84 39.6602 118.23 40.3402 117.44 41.1902L117.43 41.1802ZM105.03 27.5002C105 28.7202 105.52 29.6402 106.34 30.4302C109.47 33.4202 112.6 36.4102 115.73 39.4102C116.52 40.1702 116.53 40.1702 117.31 39.3602C120.97 35.5502 124.62 31.7302 128.28 27.9102C129.11 27.0502 129.07 27.1502 128.23 26.3402C124.96 23.2002 121.68 20.0702 118.4 16.9302C117.73 16.2902 117.05 15.6802 116.4 15.0302C116.08 14.7202 115.85 14.7202 115.56 15.0502C115.09 15.5902 114.59 16.1002 114.1 16.6202C111.44 19.4102 108.78 22.2002 106.11 24.9802C105.42 25.7002 105 26.5302 105.03 27.5002Z" fill="#D6AD60"/>
<path d="M104.77 132.7C102.25 132.7 99.72 132.7 97.2 132.7C96.34 132.7 96.32 132.7 96.07 133.54C95.28 136.11 94.49 138.69 93.71 141.27C93.47 142.08 93.5 142.12 94.36 142.17C95.76 142.26 97.15 142.32 98.55 142.4C98.86 142.42 99.16 142.45 99.46 142.5C99.66 142.53 99.73 142.69 99.73 142.87C99.73 143.09 99.67 143.28 99.41 143.31C99.24 143.33 99.07 143.33 98.9 143.33C95.8 143.36 92.69 143.39 89.59 143.4C89.27 143.4 88.76 143.62 88.73 143.01C88.7 142.42 89.2 142.55 89.54 142.49C89.98 142.42 90.42 142.32 90.86 142.31C91.71 142.29 92.13 141.85 92.38 141.07C93.26 138.27 94.17 135.49 95.08 132.7C97.95 123.85 100.82 114.99 103.7 106.14C104.05 105.07 103.78 105.08 105.18 105.08C105.76 105.08 106.34 105.12 106.92 105.07C107.51 105.02 107.77 105.27 107.94 105.81C108.68 108.08 109.45 110.34 110.21 112.6C113.45 122.19 116.69 131.79 119.93 141.38C120.23 142.28 120.24 142.27 121.21 142.32C121.96 142.35 122.71 142.41 123.46 142.46C123.78 142.48 123.97 142.6 123.93 142.97C123.89 143.29 123.68 143.33 123.43 143.34C123.12 143.34 122.82 143.34 122.51 143.34C119.64 143.36 116.78 143.4 113.91 143.4C113.58 143.4 113.05 143.61 112.99 143.06C112.92 142.44 113.48 142.54 113.86 142.49C114.47 142.4 115.07 142.32 115.68 142.22C116.14 142.15 116.32 141.87 116.21 141.41C116.17 141.24 116.12 141.08 116.07 140.92C115.23 138.43 114.37 135.95 113.57 133.45C113.38 132.85 113.08 132.67 112.47 132.68C109.91 132.71 107.35 132.69 104.79 132.69L104.77 132.7ZM112.89 131.56C111.92 128.66 110.99 125.89 110.06 123.11C109.13 120.33 108.23 117.54 107.28 114.77C106.34 112.04 105.52 109.26 104.31 106.6C101.77 114.89 99.22 123.18 96.66 131.56H112.9H112.89Z" fill="#D6AD60"/>
<path d="M234.34 142.09C235.81 142.27 237.24 142.32 238.67 142.36C239.11 142.37 239.56 142.41 240 142.44C240.29 142.46 240.55 142.52 240.5 142.91C240.46 143.27 240.22 143.34 239.92 143.32C239.85 143.32 239.78 143.32 239.72 143.32C236.62 143.35 233.51 143.38 230.41 143.39C230.08 143.39 229.56 143.62 229.49 143.06C229.41 142.43 229.97 142.54 230.35 142.48C230.79 142.41 231.23 142.32 231.67 142.3C232.45 142.26 232.88 141.89 233.13 141.13C234.16 137.85 235.25 134.58 236.31 131.3C239.03 122.9 241.75 114.5 244.46 106.1C244.87 104.83 244.85 105.09 245.86 105.07C246.44 105.06 247.02 105.1 247.6 105.06C248.2 105.02 248.5 105.21 248.7 105.82C249.65 108.74 250.66 111.63 251.64 114.54C254.66 123.48 257.68 132.43 260.7 141.38C261 142.26 261 142.26 261.99 142.3C262.74 142.33 263.49 142.38 264.24 142.43C264.54 142.45 264.77 142.55 264.73 142.93C264.7 143.24 264.5 143.32 264.24 143.31C264 143.31 263.76 143.31 263.52 143.31C260.66 143.34 257.79 143.36 254.93 143.39C254.66 143.39 254.38 143.39 254.11 143.37C253.87 143.35 253.74 143.22 253.75 142.97C253.75 142.74 253.84 142.57 254.09 142.53C254.73 142.44 255.37 142.36 256.02 142.28C257.07 142.15 257.19 141.97 256.85 140.96C256.02 138.47 255.18 135.98 254.34 133.5C254.07 132.7 254.06 132.69 253.18 132.69C248.1 132.69 243.01 132.69 237.93 132.69C237.4 132.69 237.06 132.77 236.88 133.38C236.06 136.19 235.18 138.99 234.33 141.8C234.31 141.86 234.33 141.93 234.34 142.1V142.09ZM245.27 106.52C244.94 106.83 244.92 107.15 244.83 107.44C242.88 113.75 240.94 120.07 239 126.38C238.54 127.88 238.08 129.37 237.63 130.87C237.44 131.52 237.49 131.58 238.15 131.61C238.32 131.61 238.49 131.61 238.66 131.61C243.23 131.61 247.8 131.61 252.37 131.61C253.25 131.61 253.547 131.18 253.26 130.32C250.81 122.99 248.36 115.66 245.91 108.33C245.72 107.75 245.51 107.18 245.27 106.52Z" fill="#D6AD60"/>
<path d="M216.46 125.83C216.46 131.42 216.39 137.01 216.49 142.6C216.55 145.89 215.54 148.75 213.69 151.39C212.37 153.27 210.78 154.9 209.09 156.45C209.01 156.52 208.93 156.58 208.86 156.65C208.64 156.86 208.44 156.79 208.23 156.61C208 156.42 208.01 156.22 208.17 155.99C208.85 155.01 209.49 154.01 210.07 152.96C211.83 149.8 212.74 146.42 212.74 142.8C212.74 131.24 212.74 119.68 212.74 108.13C212.74 107.99 212.74 107.86 212.74 107.72C212.74 106.47 212.59 106.33 211.35 106.25C210.64 106.2 209.93 106.12 209.21 106.07C208.83 106.05 208.64 105.9 208.67 105.51C208.7 105.1 209.01 105.14 209.27 105.14C212.13 105.12 215 105.1 217.86 105.09C218.12 105.09 218.44 105.02 218.52 105.4C218.61 105.83 218.42 106.04 217.98 106.05C217.5 106.07 216.92 106.03 216.61 106.34C216.25 106.7 216.47 107.32 216.47 107.82C216.47 113.82 216.47 119.82 216.47 125.82L216.46 125.83Z" fill="#D6AD60"/>
<path d="M190.48 124.39C190.48 129.88 190.48 135.38 190.48 140.87C190.48 141.14 190.49 141.42 190.48 141.69C190.46 142.13 190.67 142.29 191.09 142.31C191.94 142.34 192.8 142.32 193.64 142.47C193.89 142.51 194.22 142.44 194.19 142.88C194.16 143.3 193.9 143.34 193.55 143.34C190.28 143.34 187 143.36 183.73 143.36C183.5 143.36 183.21 143.41 183.19 143.06C183.17 142.74 183.33 142.56 183.66 142.52C184.3 142.45 184.95 142.37 185.59 142.28C186.53 142.15 186.75 141.92 186.77 140.96C186.79 139.77 186.77 138.57 186.77 137.38C186.77 127.72 186.77 118.07 186.77 108.41C186.77 108.14 186.77 107.86 186.77 107.59C186.74 106.56 186.52 106.34 185.51 106.25C184.9 106.2 184.29 106.11 183.68 106.07C183.34 106.04 183.18 105.88 183.18 105.56C183.18 105.17 183.45 105.14 183.74 105.14C184.97 105.13 186.2 105.12 187.42 105.11C189.26 105.11 191.1 105.1 192.95 105.09C193.15 105.09 193.36 105.09 193.56 105.09C193.9 105.09 194.17 105.15 194.16 105.58C194.16 105.96 193.92 106.01 193.62 106.04C192.94 106.1 192.26 106.19 191.58 106.22C190.43 106.27 190.47 106.27 190.47 107.4C190.47 113.06 190.47 118.73 190.47 124.39H190.48Z" fill="#D6AD60"/>
<path d="M97.4299 67.52C99.2899 72.37 101.07 77 102.94 81.88C104.81 77.01 106.6 72.37 108.38 67.73C108.44 67.74 108.5 67.75 108.55 67.76C109.83 73.64 111.11 79.53 112.39 85.39C112.28 85.47 112.23 85.53 112.17 85.54C110.64 85.67 110.63 85.67 110.3 84.2C109.59 81.01 108.89 77.81 108.19 74.62C108.16 74.46 108.17 74.28 107.9 74.07C106.96 76.08 106.27 78.15 105.46 80.18C104.64 82.23 103.85 84.29 102.84 86.36C101.23 82.27 99.6299 78.19 98.0199 74.1C97.9399 74.1 97.8599 74.12 97.7799 74.12C97.4799 75.46 97.1799 76.8 96.8899 78.15C96.3999 80.41 95.9199 82.68 95.4199 84.94C95.3599 85.2 95.3499 85.53 94.9899 85.55C94.5199 85.57 94.0199 85.69 93.5899 85.46C93.3799 85.35 93.5499 85.09 93.5899 84.9C93.9399 83.27 94.2999 81.64 94.6499 80.01C95.4699 76.28 96.2799 72.56 97.0999 68.83C97.1799 68.47 97.2799 68.12 97.4299 67.52Z" fill="#D6AD60"/>
<path d="M199.22 76.2401C202.47 77.6201 202.8 81.2401 201.52 83.2401C200.55 84.7601 199.08 85.4201 197.39 85.5201C195.49 85.6401 193.58 85.5601 191.67 85.5801C191.27 85.5801 191.12 85.4001 191.13 85.0201C191.13 84.8201 191.13 84.6101 191.13 84.4101C191.13 79.5401 191.13 74.6701 191.13 69.8001C191.13 69.5601 191.13 69.3201 191.13 69.0801C191.13 68.7901 191.28 68.6401 191.57 68.6401C193.57 68.7001 195.6 68.4301 197.58 68.8301C200.11 69.3401 201.42 71.3801 200.86 73.8201C200.63 74.7901 200.05 75.5301 199.21 76.2301L199.22 76.2401ZM192.92 80.5801C192.92 81.4601 192.92 82.3501 192.92 83.2301C192.92 83.6601 193.09 83.8501 193.52 83.8401C194.85 83.8201 196.18 83.8701 197.5 83.7801C199.23 83.6501 200.5 82.1701 200.46 80.4701C200.42 78.8801 199.01 77.4601 197.34 77.4001C196.08 77.3501 194.82 77.4001 193.57 77.3801C193.08 77.3801 192.91 77.5501 192.92 78.0301C192.94 78.8801 192.92 79.7301 192.92 80.5801ZM192.92 72.9601C192.92 73.6401 192.92 74.3201 192.92 75.0101C192.92 75.3801 193.03 75.5901 193.44 75.5801C194.57 75.5701 195.7 75.6301 196.81 75.5401C197.81 75.4601 198.66 75.0101 199.02 73.9801C199.64 72.2001 198.75 70.6901 196.88 70.4801C195.73 70.3501 194.56 70.4301 193.41 70.4101C193.06 70.4101 192.93 70.5801 192.93 70.9201C192.93 71.6001 192.93 72.2801 192.93 72.9701L192.92 72.9601Z" fill="#D6AD60"/>
<path d="M161.49 86.4498C158.42 82.0998 155.42 77.8298 152.41 73.5598C152.33 73.5798 152.26 73.5998 152.18 73.6198V74.3898C152.18 77.7698 152.18 81.1398 152.18 84.5198C152.18 84.8498 152.34 85.2898 152.03 85.4798C151.62 85.7298 151.11 85.5998 150.64 85.5498C150.48 85.5298 150.42 85.3998 150.41 85.2498C150.39 85.0498 150.39 84.8398 150.39 84.6398C150.39 79.2898 150.39 73.9298 150.39 68.5798C150.39 68.3598 150.3 68.1098 150.6 67.8198C153.62 72.0998 156.62 76.3598 159.7 80.7298C159.91 80.2498 159.85 79.9098 159.85 79.5898C159.85 76.3798 159.85 73.1798 159.85 69.9698C159.85 69.7298 159.86 69.4898 159.85 69.2498C159.82 68.8198 159.99 68.5998 160.44 68.6498C160.47 68.6498 160.51 68.6498 160.54 68.6498C161.67 68.5998 161.68 68.6098 161.68 69.7398C161.68 74.9898 161.68 80.2398 161.68 85.4898C161.68 85.7498 161.76 86.0298 161.5 86.4498H161.49Z" fill="#D6AD60"/>
<path d="M63.74 76.9901C63.74 74.5001 63.74 72.0101 63.74 69.5201C63.74 68.6601 63.75 68.6301 64.57 68.6501C66.31 68.6901 68.05 68.4901 69.78 68.8001C74.49 69.6401 77.04 73.3701 76.89 77.4501C76.7 82.4301 72.71 85.4701 68.63 85.5701C67.27 85.6001 65.9 85.5901 64.54 85.5701C63.76 85.5701 63.75 85.5501 63.74 84.7701C63.74 82.1801 63.74 79.5801 63.74 76.9901ZM65.55 77.0701C65.55 78.9801 65.55 80.8901 65.55 82.7901C65.55 83.7701 65.55 83.7701 66.57 83.7701C67.25 83.7701 67.93 83.7801 68.61 83.7701C72.07 83.6801 74.9 81.1001 75.15 77.6701C75.44 73.6901 72.64 71.1401 69.71 70.5901C68.59 70.3801 67.47 70.4701 66.35 70.4501C65.57 70.4401 65.56 70.4601 65.55 71.2401C65.55 73.1801 65.55 75.1201 65.55 77.0601V77.0701Z" fill="#D6AD60"/>
<path d="M31.5901 85.5802C34.0901 79.5102 36.5201 73.6002 39.0501 67.4302C41.5601 73.5602 43.9801 79.4602 46.4301 85.4302C45.8401 85.6602 45.3301 85.5602 44.8401 85.5702C44.4901 85.5702 44.4101 85.2802 44.3101 85.0302C43.8801 83.9502 43.4401 82.8802 43.0501 81.7902C42.8501 81.2302 42.5701 80.9902 41.9501 81.0102C40.0101 81.0502 38.0601 81.0502 36.1201 81.0102C35.4901 81.0002 35.2201 81.2502 35.0201 81.8102C34.6801 82.7702 34.2901 83.7202 33.9101 84.6702C33.4701 85.7602 33.6001 85.5602 32.5101 85.5902C32.2701 85.5902 32.0401 85.5902 31.5901 85.5902V85.5802ZM42.0901 79.3802C41.0601 76.7502 40.1001 74.3002 39.0501 71.6402C38.0401 74.1902 37.1101 76.5402 36.1701 78.9002C36.0101 79.2902 36.2401 79.3802 36.5701 79.3802C38.3401 79.3802 40.1101 79.3802 42.0901 79.3802Z" fill="#D6AD60"/>
<path d="M218.14 68.6498C218.95 68.6498 219.52 68.6498 220.09 68.6498C220.51 68.6498 220.65 68.9898 220.84 69.2598C222.13 71.0998 223.41 72.9498 224.7 74.7998C224.84 74.9998 224.97 75.1898 225.11 75.3798C225.33 75.6698 225.53 75.6598 225.75 75.3598C226.41 74.4098 227.08 73.4698 227.75 72.5198C228.49 71.4598 229.26 70.4098 229.96 69.3198C230.3 68.7898 230.7 68.5798 231.31 68.6398C231.7 68.6798 232.1 68.6398 232.51 68.6398C232.53 69.0898 232.28 69.2898 232.11 69.5298C230.35 71.9998 228.59 74.4698 226.81 76.9298C226.47 77.3998 226.34 77.8798 226.34 78.4498C226.36 80.4998 226.35 82.5398 226.34 84.5898C226.34 84.9098 226.5 85.3598 226.11 85.5098C225.67 85.6798 225.17 85.6398 224.7 85.5098C224.47 85.4498 224.5 85.1798 224.49 84.9898C224.49 84.2398 224.49 83.4898 224.49 82.7398C224.49 81.2698 224.48 79.8098 224.49 78.3398C224.49 77.8398 224.36 77.4298 224.06 77.0198C222.3 74.5898 220.56 72.1498 218.82 69.6998C218.63 69.4298 218.45 69.1398 218.12 68.6398L218.14 68.6498Z" fill="#D6AD60"/>
<path d="M131.48 77.1001C131.48 79.6601 131.48 82.2101 131.48 84.7701C131.48 85.0501 131.64 85.4601 131.21 85.5401C130.75 85.6201 130.27 85.6801 129.81 85.4701C129.74 85.4401 129.71 85.3001 129.69 85.2101C129.67 85.1101 129.68 85.0101 129.68 84.9001C129.68 79.7201 129.68 74.5401 129.68 69.3601C129.68 68.8501 129.82 68.5801 130.37 68.6401C130.5 68.6501 130.64 68.6501 130.78 68.6401C131.29 68.5901 131.54 68.7701 131.51 69.3301C131.48 69.8701 131.51 70.4201 131.51 70.9701C131.51 73.0101 131.51 75.0601 131.51 77.1001H131.48Z" fill="#D6AD60"/>
<path d="M125.81 18.5698C125.35 18.6098 124.98 18.0898 125.2 17.6498C125.32 17.4098 125.53 17.2198 125.71 17.0198C126.46 16.2298 127.22 15.4398 127.98 14.6698C128.88 13.7598 128.7 13.8898 127.98 13.1898C127.23 12.4498 126.45 11.7298 125.68 11.0098C125.51 10.8498 125.33 10.6798 125.17 10.5098C124.86 10.1898 124.83 9.84984 125.16 9.51984C125.47 9.21984 125.8 9.30984 126.07 9.55984C126.89 10.3298 127.7 11.1098 128.51 11.8898C128.73 12.0998 128.96 12.3098 129.17 12.5298C129.48 12.8498 129.73 12.8098 130.03 12.4998C130.82 11.6598 131.64 10.8298 132.44 9.99984C132.63 9.79984 132.82 9.60984 133.02 9.41984C133.31 9.14984 133.63 9.09984 133.93 9.35984C134.24 9.62984 134.2 9.95984 133.96 10.2698C133.81 10.4498 133.64 10.6198 133.47 10.7898C132.65 11.6598 131.85 12.5398 131 13.3798C130.65 13.7298 130.65 13.9498 131.01 14.2798C131.96 15.1598 132.88 16.0698 133.81 16.9698C134.38 17.5298 134.46 17.8398 134.15 18.1698C133.82 18.5198 133.5 18.4598 132.94 17.9298C132.05 17.0898 131.17 16.2398 130.27 15.3998C129.64 14.8098 129.63 14.8098 129 15.4598C128.17 16.3198 127.36 17.1898 126.54 18.0598C126.33 18.2798 126.11 18.4998 125.79 18.5698H125.81Z" fill="#D6AD60"/>
<path d="M126.61 36.27C126.92 36.27 127.1 36.47 127.3 36.66C128.14 37.46 128.98 38.25 129.82 39.05C131.59 40.74 133.36 42.44 135.13 44.14C135.33 44.33 135.54 44.51 135.69 44.73C135.88 45 135.89 45.32 135.62 45.57C135.4 45.78 135.11 45.77 134.86 45.63C134.69 45.53 134.54 45.38 134.4 45.23C131.81 42.76 129.23 40.3 126.64 37.83C126.44 37.64 126.23 37.46 126.09 37.23C125.83 36.8 126.13 36.28 126.61 36.28V36.27Z" fill="#D6AD60"/>
<path d="M148.8 31.5298C148.83 31.9898 148.3 32.3398 147.86 32.1098C147.62 31.9898 147.43 31.7798 147.24 31.5898C144.8 29.2598 142.36 26.9398 139.92 24.6098C139.35 24.0698 139.25 23.7498 139.54 23.4098C139.86 23.0298 140.25 23.0998 140.83 23.6498C143.29 26.0098 145.75 28.3598 148.2 30.7298C148.44 30.9598 148.74 31.1598 148.8 31.5298Z" fill="#D6AD60"/>
<path d="M129.83 44.1501C129.83 45.1601 128.96 46.0501 127.94 46.0601C126.91 46.0801 126.02 45.2301 125.99 44.2201C125.96 43.1801 126.89 42.2201 127.92 42.2301C128.9 42.2301 129.83 43.1601 129.83 44.1401V44.1501ZM128.45 44.0801C128.41 43.7301 128.19 43.5601 127.84 43.6001C127.47 43.6401 127.32 43.8901 127.37 44.2401C127.41 44.5601 127.63 44.7101 127.93 44.6901C128.29 44.6701 128.47 44.4701 128.46 44.0801H128.45Z" fill="#D6AD60"/>
<path d="M132.08 37.89C132.06 36.84 132.85 35.97 133.86 35.92C134.89 35.87 135.81 36.77 135.81 37.84C135.81 38.87 135 39.71 133.96 39.73C132.92 39.75 132.09 38.94 132.07 37.89H132.08ZM134.53 37.87C134.51 37.51 134.32 37.29 133.96 37.29C133.6 37.29 133.37 37.47 133.36 37.84C133.34 38.21 133.59 38.41 133.92 38.44C134.27 38.46 134.46 38.22 134.53 37.88V37.87Z" fill="#D6AD60"/>
<path d="M114.4 28.44C112.94 28.44 111.47 28.44 110.01 28.44C109.19 28.44 108.83 28.26 108.81 27.81C108.79 27.36 109.14 27.13 109.97 27.11C111.71 27.07 113.45 27.07 115.18 27.03C115.96 27.01 115.97 27 115.97 26.21C115.96 24.61 115.89 23.01 115.93 21.41C115.95 20.82 115.47 19.95 116.49 19.7C116.99 19.58 117.14 19.99 117.17 21.34C117.21 22.91 117.26 24.47 117.31 26.04C117.34 26.92 117.35 26.93 118.25 26.92C119.95 26.9 121.66 26.86 123.36 26.84C124.22 26.83 124.53 27.01 124.52 27.48C124.51 27.92 124.24 28.07 123.42 28.09C121.65 28.14 119.88 28.19 118.11 28.25C117.37 28.27 117.34 28.28 117.35 28.99C117.39 30.69 117.32 32.4 117.47 34.1C117.5 34.4 117.47 34.71 117.44 35.02C117.4 35.36 117.19 35.6 116.83 35.59C116.49 35.59 116.26 35.35 116.2 35.02C116.15 34.75 116.17 34.48 116.16 34.21C116.1 32.51 116.19 30.8 116.03 29.1C115.96 28.31 115.96 28.31 115.22 28.3C114.95 28.3 114.67 28.3 114.4 28.3C114.4 28.35 114.4 28.4 114.4 28.45V28.44Z" fill="#D6AD60"/>
</svg>
