<svg width="278" height="84" viewBox="0 0 278 84" fill="none" xmlns="http://www.w3.org/2000/svg">
<path d="M142.52 57.87C141.11 57.9 139.87 57.32 138.82 56.34C137.2 54.82 135.62 53.26 134.01 51.73C130.74 48.59 127.46 45.45 124.18 42.32C122.34 40.56 120.49 38.8 118.65 37.03C117.48 35.92 116.3 34.82 115.16 33.68C112.91 31.46 112.81 28.38 114.93 26.05C116.54 24.29 118.21 22.58 119.86 20.86C123.12 17.45 126.39 14.05 129.65 10.65C131.32 8.91 132.98 7.16 134.64 5.41C135.64 4.36 136.61 3.28999 137.64 2.26999C139.38 0.549995 141.42 0.0999981 143.72 0.999998C144.4 1.26 144.97 1.7 145.49 2.2C147.17 3.81 148.85 5.43 150.53 7.04C153.69 10.06 156.85 13.08 160.01 16.1C162.35 18.34 164.7 20.57 167.05 22.81C167.82 23.54 168.61 24.25 169.33 25.03C171.3 27.14 171.29 30.29 169.31 32.42C168 33.84 166.65 35.22 165.31 36.61C162.03 40.03 158.74 43.45 155.46 46.88C153.69 48.73 151.92 50.59 150.14 52.44C148.93 53.71 147.72 54.97 146.51 56.24C145.44 57.36 144.12 57.88 142.51 57.88L142.52 57.87ZM169.29 28.69C169.34 27.45 168.77 26.48 167.9 25.65C166.51 24.31 165.1 22.99 163.7 21.66C161.9 19.95 160.11 18.23 158.31 16.52C155.11 13.46 151.91 10.4 148.71 7.33999C147.26 5.95999 145.83 4.57 144.37 3.2C142.66 1.59 140.42 1.62999 138.74 3.26999C138.37 3.63999 138 4.01 137.64 4.39C134.64 7.53 131.64 10.67 128.63 13.81C127.8 14.68 127.84 14.55 128.64 15.32C131.76 18.31 134.88 21.29 137.99 24.28C139.2 25.43 140.4 26.59 141.61 27.73C142 28.1 142.13 28.08 142.51 27.7C143.1 27.1 143.67 26.48 144.26 25.88C146.46 23.59 148.65 21.3 150.85 19.01C151.67 18.15 152.5 17.3 153.33 16.46C153.65 16.14 153.99 16.11 154.29 16.36C154.62 16.63 154.67 16.95 154.43 17.35C154.36 17.47 154.27 17.58 154.18 17.67C152.81 19.11 151.45 20.55 150.08 21.99C148.29 23.87 146.5 25.74 144.71 27.61C141.48 30.99 138.24 34.36 135 37.73C133 39.82 131 41.92 129 44.02C128.84 44.19 128.6 44.37 128.58 44.56C128.56 44.75 128.91 44.8 129.06 44.95C129.09 44.98 129.12 45.01 129.15 45.04C131.41 47.2 133.68 49.37 135.94 51.53C137.27 52.8 138.57 54.09 139.93 55.32C140.88 56.18 141.99 56.63 143.31 56.38C144.3 56.19 145.08 55.66 145.77 54.94C148.14 52.46 150.52 49.98 152.89 47.5C153.9 46.44 154.91 45.38 155.91 44.32C156.23 43.98 156.21 43.69 155.89 43.39C155.16 42.7 154.43 42.01 153.7 41.31C151.56 39.26 149.41 37.21 147.28 35.16C146.38 34.3 145.49 33.44 144.61 32.57C144.3 32.26 144.29 31.95 144.55 31.65C144.82 31.33 145.16 31.28 145.51 31.51C145.65 31.6 145.78 31.7 145.9 31.82C148.31 34.12 150.73 36.43 153.14 38.74C154.39 39.93 155.62 41.13 156.88 42.31C157.38 42.78 157.43 42.76 157.91 42.26C159.65 40.43 161.4 38.61 163.14 36.79C164.77 35.09 166.41 33.39 168.04 31.69C168.83 30.86 169.34 29.91 169.31 28.72L169.29 28.69ZM114.94 29.65C114.93 30.64 115.21 31.47 115.79 32.2C116.29 32.83 116.91 33.34 117.48 33.9C120.51 36.8 123.53 39.7 126.56 42.6C127.44 43.44 127.5 43.44 128.32 42.58C130.8 39.99 133.28 37.4 135.76 34.81C137.36 33.14 138.97 31.47 140.58 29.8C141.06 29.3 141.06 29.23 140.58 28.77C139.26 27.5 137.94 26.23 136.61 24.96C133.54 22.03 130.47 19.09 127.4 16.16C126.93 15.71 126.81 15.71 126.36 16.19C125.09 17.53 123.83 18.88 122.56 20.22C120.41 22.47 118.24 24.72 116.09 26.97C115.36 27.73 114.9 28.63 114.95 29.66L114.94 29.65Z" fill="#D6AD60"/>
<path d="M136.88 19.2C136.85 18.91 137.02 18.7 137.22 18.49C138.15 17.53 139.08 16.57 140.01 15.6C140.96 14.61 140.75 14.78 139.99 14.05C139 13.09 138 12.15 137 11.19C136.78 10.98 136.58 10.74 136.66 10.39C136.8 9.81 137.4 9.61 137.86 10C138.32 10.4 138.75 10.82 139.19 11.24C139.88 11.9 140.56 12.56 141.24 13.22C141.65 13.62 141.84 13.62 142.24 13.22C143.27 12.16 144.29 11.1 145.32 10.04C145.4 9.96 145.47 9.88 145.56 9.81C145.87 9.57 146.23 9.58 146.5 9.83C146.79 10.09 146.85 10.43 146.57 10.75C146.02 11.4 145.43 12.02 144.84 12.64C144.32 13.19 143.79 13.73 143.27 14.28C142.93 14.63 142.92 14.82 143.27 15.15C144.2 16.05 145.14 16.94 146.08 17.83C146.34 18.08 146.6 18.33 146.79 18.63C146.97 18.91 146.98 19.2 146.74 19.46C146.49 19.73 146.2 19.79 145.89 19.58C145.3 19.19 144.83 18.66 144.32 18.18C143.65 17.55 142.99 16.9 142.31 16.27C141.89 15.88 141.74 15.88 141.35 16.29C140.33 17.34 139.33 18.4 138.31 19.45C138.19 19.58 138.05 19.7 137.89 19.78C137.4 20.05 136.89 19.75 136.88 19.17V19.2Z" fill="#D6AD60"/>
<path d="M138.49 39.22C138.74 39.22 138.93 39.34 139.11 39.51C140.94 41.26 142.78 43.01 144.61 44.76C145.72 45.81 146.82 46.87 147.93 47.93C148.14 48.13 148.36 48.32 148.48 48.59C148.6 48.86 148.57 49.1 148.37 49.32C148.17 49.55 147.92 49.62 147.62 49.51C147.42 49.43 147.26 49.31 147.11 49.16C145.01 47.15 142.91 45.14 140.81 43.13C139.99 42.35 139.17 41.58 138.35 40.8C138.17 40.63 137.99 40.46 137.87 40.24C137.62 39.76 137.95 39.22 138.49 39.23V39.22Z" fill="#D6AD60"/>
<path d="M162.72 34.11C162.7 34.37 162.56 34.56 162.34 34.67C162.08 34.81 161.79 34.82 161.56 34.63C161.11 34.25 160.67 33.85 160.24 33.44C157.96 31.26 155.68 29.07 153.39 26.89C153.1 26.61 152.79 26.36 152.56 26.03C152.36 25.74 152.32 25.45 152.56 25.16C152.82 24.86 153.13 24.82 153.45 25.02C153.68 25.16 153.9 25.34 154.1 25.53C156.43 27.76 158.75 30 161.08 32.24C161.5 32.64 161.92 33.04 162.34 33.43C162.54 33.62 162.67 33.83 162.71 34.1L162.72 34.11Z" fill="#D6AD60"/>
<path d="M139.85 49.91C138.71 49.91 137.78 48.97 137.79 47.83C137.8 46.7 138.81 45.69 139.9 45.71C140.99 45.74 142.02 46.79 142.01 47.86C141.99 48.98 141 49.92 139.85 49.91ZM139.93 47.25C139.54 47.23 139.31 47.43 139.29 47.78C139.27 48.14 139.49 48.4 139.84 48.41C140.2 48.42 140.44 48.2 140.45 47.84C140.46 47.47 140.27 47.26 139.93 47.25Z" fill="#D6AD60"/>
<path d="M144.43 40.94C144.43 39.77 145.33 38.83 146.46 38.82C147.57 38.82 148.54 39.81 148.54 40.96C148.54 42.08 147.57 43.04 146.44 43.03C145.31 43.02 144.43 42.11 144.43 40.94ZM146.46 41.56C146.83 41.56 147.08 41.32 147.08 40.94C147.08 40.6 146.84 40.34 146.49 40.33C146.12 40.33 145.85 40.57 145.84 40.93C145.83 41.28 146.09 41.55 146.46 41.56Z" fill="#D6AD60"/>
<path d="M127.04 35.24C127.04 33.86 127.01 32.48 126.88 31.11C126.84 30.7 126.67 30.55 126.25 30.52C125.48 30.45 124.75 30.74 123.98 30.71C122.74 30.66 121.5 30.69 120.26 30.7C119.99 30.7 119.74 30.67 119.49 30.59C119.2 30.5 119.03 30.29 119.02 29.98C119.01 29.68 119.17 29.48 119.43 29.37C119.68 29.26 119.96 29.22 120.24 29.22C122.18 29.19 124.13 29.16 126.07 29.14C126.76 29.14 126.88 29.04 126.86 28.35C126.81 26.53 126.78 24.71 126.79 22.89C126.79 22.6 126.72 22.32 126.71 22.03C126.69 21.52 126.87 21.31 127.35 21.16C127.7 21.05 127.92 21.17 128.02 21.5C128.14 21.86 128.17 22.23 128.18 22.6C128.22 24.06 128.25 25.52 128.29 26.98C128.3 27.41 128.34 27.83 128.35 28.26C128.37 28.92 128.48 29.06 129.13 29.03C130.74 28.96 132.36 28.99 133.97 28.96C134.48 28.95 134.98 28.87 135.49 28.96C136.01 29.05 136.23 29.25 136.22 29.64C136.22 30.03 135.94 30.27 135.42 30.29C134.33 30.33 133.24 30.35 132.16 30.39C131.06 30.43 129.96 30.49 128.86 30.52C128.48 30.53 128.38 30.74 128.38 31.05C128.38 31.45 128.42 31.85 128.43 32.25C128.45 33.82 128.39 35.39 128.53 36.96C128.56 37.29 128.56 37.62 128.47 37.95C128.38 38.3 128.18 38.51 127.8 38.5C127.43 38.5 127.22 38.29 127.13 37.94C127.04 37.6 127.05 37.26 127.05 36.91C127.05 36.36 127.05 35.81 127.05 35.25L127.04 35.24Z" fill="#D6AD60"/>
<path d="M13.7899 65.37H13.4999C13.3699 64.72 13.1299 64.17 12.7799 63.73C12.4299 63.29 11.8799 63.07 11.1099 63.07H3.56991V72.48H9.75991C10.0499 72.46 10.3099 72.38 10.5399 72.25C10.7299 72.13 10.8999 71.95 11.0599 71.7C11.2099 71.45 11.2899 71.1 11.2899 70.64H11.6099V74.78H11.2899C11.2899 74.32 11.2099 73.96 11.0599 73.72C10.9099 73.47 10.7299 73.29 10.5399 73.17C10.3299 73.04 10.0799 72.96 9.78991 72.94H3.56991V81.66C3.56991 81.81 3.59991 81.95 3.65991 82.06C3.69991 82.18 3.76991 82.28 3.87991 82.36C3.98991 82.45 4.11991 82.49 4.29991 82.49V82.78H0.159912V82.49C0.349912 82.49 0.499912 82.45 0.609912 82.36C0.719912 82.27 0.789912 82.17 0.829912 82.06C0.889912 81.94 0.919912 81.81 0.919912 81.66V63.73C0.919912 63.58 0.889912 63.44 0.829912 63.33C0.789912 63.23 0.719912 63.14 0.609912 63.06C0.499912 62.97 0.359912 62.93 0.159912 62.93V62.61H13.5399L13.7999 65.37H13.7899Z" fill="#D6AD60"/>
<path d="M26.4199 82.32C27.1899 82.32 27.7499 82.1 28.0999 81.66C28.4499 81.22 28.6899 80.68 28.8099 80.05H29.1299L28.8399 82.78H15.1099V82.49C15.2999 82.49 15.4499 82.45 15.5599 82.36C15.6699 82.27 15.7399 82.17 15.7799 82.06C15.8399 81.94 15.8699 81.81 15.8699 81.66V63.73C15.8699 63.58 15.8399 63.44 15.7799 63.33C15.7399 63.23 15.6699 63.14 15.5599 63.06C15.4499 62.97 15.3099 62.93 15.1099 62.93V62.64H28.8399L29.1299 65.37H28.8099C28.6899 64.72 28.4599 64.17 28.0999 63.73C27.7399 63.29 27.1799 63.07 26.4199 63.07H18.5299V72.11H24.7199C25.0099 72.09 25.2699 72.01 25.4999 71.88C25.6899 71.76 25.8599 71.58 26.0199 71.33C26.1699 71.08 26.2499 70.73 26.2499 70.26H26.5399V74.4H26.2499C26.2499 73.94 26.1699 73.58 26.0199 73.34C25.8699 73.09 25.6899 72.91 25.4999 72.79C25.2699 72.66 25.0099 72.58 24.7199 72.56H18.5299V82.32H26.4199Z" fill="#D6AD60"/>
<path d="M50.5999 62.92C50.4299 62.92 50.2899 62.96 50.1799 63.05C50.0699 63.14 49.9999 63.23 49.9599 63.32C49.8999 63.44 49.8699 63.57 49.8699 63.72V81.65C49.8699 81.8 49.8999 81.94 49.9599 82.05C49.9999 82.17 50.0699 82.27 50.1799 82.35C50.2899 82.44 50.4199 82.48 50.5999 82.48V82.77H46.4599V82.48C46.6499 82.48 46.7999 82.44 46.9099 82.35C47.0199 82.26 47.0899 82.16 47.1299 82.05C47.1899 81.93 47.2199 81.8 47.2199 81.65V64.21L40.1399 80.9H39.6799L32.4599 64.75V80.95C32.4799 81.24 32.5599 81.49 32.6899 81.7C32.8099 81.89 32.9899 82.06 33.2399 82.22C33.4899 82.37 33.8399 82.45 34.2999 82.45V82.77H30.1599V82.45C30.6199 82.45 30.9799 82.37 31.2199 82.22C31.4699 82.07 31.6499 81.89 31.7699 81.7C31.8999 81.49 31.9799 81.24 31.9999 80.95V64.26C31.9799 64.16 31.9499 64.04 31.8999 63.89C31.8499 63.74 31.7599 63.59 31.6299 63.44C31.4999 63.3 31.3099 63.17 31.0799 63.07C30.8499 62.96 30.5499 62.91 30.1899 62.91V62.59H34.2199C34.4499 62.59 34.6299 62.71 34.7699 62.94L41.1899 77.3L47.4099 62.62L50.6299 62.59V62.91L50.5999 62.92Z" fill="#D6AD60"/>
<path d="M74.1998 65.37H73.9098C73.7798 64.72 73.5398 64.17 73.1898 63.73C72.8398 63.29 72.2898 63.07 71.5198 63.07H63.9798V72.48H70.1698C70.4598 72.46 70.7198 72.38 70.9498 72.25C71.1398 72.13 71.3098 71.95 71.4698 71.7C71.6198 71.45 71.6998 71.1 71.6998 70.64H72.0198V74.78H71.6998C71.6998 74.32 71.6198 73.96 71.4698 73.72C71.3198 73.47 71.1398 73.29 70.9498 73.17C70.7398 73.04 70.4898 72.96 70.1998 72.94H63.9798V81.66C63.9798 81.81 64.0098 81.95 64.0698 82.06C64.1098 82.18 64.1798 82.28 64.2898 82.36C64.3998 82.45 64.5298 82.49 64.7098 82.49V82.78H60.5698V82.49C60.7598 82.49 60.9098 82.45 61.0198 82.36C61.1298 82.27 61.1998 82.17 61.2398 82.06C61.2998 81.94 61.3298 81.81 61.3298 81.66V63.73C61.3298 63.58 61.2998 63.44 61.2398 63.33C61.1998 63.23 61.1298 63.14 61.0198 63.06C60.9098 62.97 60.7698 62.93 60.5698 62.93V62.61H73.9498L74.2098 65.37H74.1998Z" fill="#D6AD60"/>
<path d="M78.95 81.66C78.95 81.81 78.98 81.95 79.04 82.06C79.08 82.18 79.15 82.28 79.26 82.36C79.37 82.45 79.5 82.49 79.68 82.49V82.78H75.54V82.49C75.73 82.49 75.88 82.45 75.99 82.36C76.1 82.27 76.17 82.17 76.21 82.06C76.27 81.94 76.3 81.81 76.3 81.66V70.15C76.3 70 76.27 69.86 76.21 69.75C76.17 69.65 76.1 69.56 75.99 69.48C75.88 69.39 75.74 69.35 75.54 69.35V69.03H78.39C78.54 69.03 78.68 69.09 78.79 69.2C78.9 69.31 78.96 69.45 78.96 69.6V81.66H78.95ZM77.48 67.12C76.98 67.12 76.55 66.94 76.2 66.59C75.84 66.24 75.67 65.81 75.67 65.31C75.67 64.81 75.85 64.38 76.2 64.03C76.55 63.68 76.98 63.5 77.48 63.5C77.98 63.5 78.43 63.67 78.78 64.02C79.05 64.29 79.22 64.6 79.3 64.96C79.38 65.32 79.34 65.67 79.18 66.01C79.03 66.36 78.8 66.63 78.5 66.83C78.2 67.03 77.86 67.13 77.48 67.13V67.12Z" fill="#D6AD60"/>
<path d="M94.47 81.66C94.47 81.81 94.5 81.95 94.56 82.06C94.62 82.18 94.69 82.28 94.79 82.36C94.89 82.45 95.03 82.49 95.22 82.49V82.78H91.08V82.49C91.27 82.49 91.42 82.45 91.51 82.36C91.61 82.27 91.67 82.17 91.71 82.06C91.77 81.94 91.8 81.81 91.8 81.66V71.82C91.8 71.51 91.74 71.21 91.61 70.9C91.49 70.59 91.3 70.32 91.06 70.07C90.82 69.82 90.53 69.62 90.18 69.47C89.83 69.32 89.43 69.24 88.97 69.24C88.38 69.24 87.84 69.36 87.37 69.61C86.9 69.86 86.5 70.16 86.16 70.52C85.82 70.88 85.57 71.25 85.4 71.66C85.23 72.07 85.14 72.42 85.14 72.72V81.67C85.14 81.82 85.17 81.96 85.23 82.07C85.27 82.19 85.34 82.29 85.45 82.37C85.56 82.46 85.69 82.5 85.87 82.5V82.79H81.73V82.5C81.92 82.5 82.07 82.46 82.18 82.37C82.29 82.28 82.36 82.18 82.4 82.07C82.46 81.95 82.49 81.82 82.49 81.67V70.16C82.49 70.01 82.46 69.87 82.4 69.76C82.36 69.66 82.29 69.57 82.18 69.49C82.07 69.4 81.93 69.36 81.73 69.36V69.04H84.58C84.73 69.04 84.87 69.1 84.98 69.21C85.09 69.32 85.15 69.46 85.15 69.61V71.19C85.55 70.38 86.13 69.77 86.89 69.33C87.65 68.9 88.48 68.7 89.38 68.74C90.03 68.74 90.67 68.84 91.28 69.03C91.89 69.22 92.44 69.5 92.91 69.88C93.38 70.25 93.76 70.71 94.05 71.26C94.34 71.81 94.48 72.44 94.48 73.17V81.66H94.47Z" fill="#D6AD60"/>
<path d="M108.51 81.66C108.51 81.81 108.54 81.95 108.6 82.06C108.66 82.18 108.73 82.28 108.83 82.36C108.93 82.45 109.07 82.49 109.26 82.49V82.78H106.41C106.26 82.78 106.12 82.72 106.01 82.61C105.9 82.5 105.84 82.36 105.84 82.21V80.22C105.63 80.8 105.37 81.27 105.05 81.63C104.73 81.99 104.4 82.29 104.04 82.51C103.68 82.73 103.32 82.88 102.93 82.97C102.55 83.06 102.18 83.1 101.84 83.1H101.35C101.08 83.1 100.76 83.08 100.39 83.04C100.02 83 99.6198 82.92 99.1998 82.8C98.7798 82.68 98.3898 82.49 98.0298 82.24C97.6698 81.99 97.3798 81.66 97.1498 81.26C96.9198 80.86 96.7998 80.35 96.7998 79.73C96.7998 79.11 96.9298 78.58 97.1898 78.13C97.4498 77.68 97.8298 77.26 98.3398 76.86C98.8498 76.47 99.4798 76.08 100.24 75.71C101 75.34 101.89 74.93 102.9 74.49C103.94 74.05 104.68 73.67 105.15 73.37C105.61 73.06 105.84 72.64 105.84 72.1V71.81C105.84 71.5 105.78 71.19 105.65 70.87C105.52 70.55 105.33 70.27 105.07 70.02C104.81 69.77 104.49 69.57 104.12 69.42C103.75 69.27 103.31 69.19 102.81 69.19C102.23 69.19 101.74 69.29 101.31 69.49C100.89 69.69 100.54 69.96 100.26 70.3C99.9798 70.64 99.7798 71.02 99.6598 71.47C99.5298 71.91 99.4698 72.37 99.4698 72.85L97.3098 72.1C97.4098 71.81 97.5798 71.48 97.8398 71.09C98.0998 70.71 98.4598 70.34 98.9198 69.98C99.3798 69.63 99.9598 69.33 100.66 69.09C101.36 68.85 102.21 68.73 103.21 68.73C104.21 68.73 105.01 68.86 105.69 69.13C106.36 69.4 106.91 69.75 107.33 70.18C107.75 70.61 108.05 71.08 108.24 71.59C108.42 72.1 108.51 72.6 108.51 73.1V81.65V81.66ZM105.83 73.34C105.62 73.55 105.31 73.77 104.89 73.99C104.48 74.21 103.92 74.49 103.21 74.84C102.42 75.22 101.79 75.66 101.32 76.14C100.85 76.62 100.49 77.09 100.24 77.56C99.9898 78.03 99.8298 78.47 99.7498 78.88C99.6698 79.29 99.6298 79.62 99.6298 79.87C99.6298 80.1 99.6598 80.37 99.7198 80.69C99.7798 81.01 99.8998 81.31 100.08 81.6C100.26 81.89 100.52 82.13 100.84 82.33C101.17 82.53 101.6 82.63 102.14 82.63C102.87 82.63 103.47 82.45 103.95 82.1C104.43 81.75 104.8 81.33 105.07 80.86C105.34 80.39 105.53 79.93 105.65 79.48C105.77 79.03 105.82 78.71 105.82 78.52V73.34H105.83Z" fill="#D6AD60"/>
<path d="M123.88 81.66C123.88 81.81 123.91 81.95 123.97 82.06C124.03 82.18 124.1 82.28 124.2 82.36C124.3 82.45 124.44 82.49 124.63 82.49V82.78H120.49V82.49C120.68 82.49 120.83 82.45 120.92 82.36C121.02 82.27 121.08 82.17 121.12 82.06C121.18 81.94 121.21 81.81 121.21 81.66V71.82C121.21 71.51 121.15 71.21 121.02 70.9C120.9 70.59 120.71 70.32 120.47 70.07C120.23 69.82 119.94 69.62 119.59 69.47C119.24 69.32 118.84 69.24 118.38 69.24C117.79 69.24 117.25 69.36 116.78 69.61C116.31 69.86 115.91 70.16 115.57 70.52C115.23 70.88 114.98 71.25 114.81 71.66C114.64 72.07 114.55 72.42 114.55 72.72V81.67C114.55 81.82 114.58 81.96 114.64 82.07C114.68 82.19 114.75 82.29 114.86 82.37C114.97 82.46 115.1 82.5 115.28 82.5V82.79H111.14V82.5C111.33 82.5 111.48 82.46 111.59 82.37C111.7 82.28 111.77 82.18 111.81 82.07C111.87 81.95 111.9 81.82 111.9 81.67V70.16C111.9 70.01 111.87 69.87 111.81 69.76C111.77 69.66 111.7 69.57 111.59 69.49C111.48 69.4 111.34 69.36 111.14 69.36V69.04H113.99C114.14 69.04 114.28 69.1 114.39 69.21C114.5 69.32 114.56 69.46 114.56 69.61V71.19C114.96 70.38 115.54 69.77 116.3 69.33C117.06 68.9 117.89 68.7 118.79 68.74C119.44 68.74 120.08 68.84 120.69 69.03C121.3 69.22 121.85 69.5 122.32 69.88C122.79 70.25 123.17 70.71 123.46 71.26C123.75 71.81 123.89 72.44 123.89 73.17V81.66H123.88Z" fill="#D6AD60"/>
<path d="M138.91 79.41C138.66 80.1 138.28 80.72 137.76 81.25C137.32 81.71 136.7 82.13 135.9 82.52C135.1 82.9 134.07 83.1 132.81 83.1C131.62 83.1 130.6 82.91 129.74 82.54C128.89 82.17 128.19 81.65 127.65 81C127.11 80.35 126.72 79.59 126.47 78.71C126.22 77.84 126.1 76.9 126.1 75.9C126.1 74.9 126.22 74 126.47 73.12C126.72 72.25 127.11 71.48 127.65 70.83C128.19 70.18 128.88 69.66 129.74 69.29C130.59 68.92 131.62 68.73 132.81 68.73C133.62 68.73 134.33 68.81 134.95 68.97C135.57 69.13 136.12 69.36 136.59 69.65C137.06 69.94 137.46 70.27 137.8 70.64C138.14 71.01 138.42 71.41 138.65 71.83L136.87 73.13C136.7 72.57 136.51 72.06 136.32 71.58C136.13 71.1 135.89 70.68 135.6 70.33C135.31 69.98 134.96 69.7 134.55 69.5C134.14 69.3 133.63 69.2 133.04 69.2C132.33 69.2 131.72 69.38 131.2 69.73C130.68 70.09 130.26 70.56 129.93 71.17C129.6 71.77 129.36 72.48 129.2 73.3C129.04 74.12 128.96 74.98 128.96 75.9C128.96 76.82 129.06 77.7 129.26 78.53C129.46 79.36 129.77 80.09 130.18 80.7C130.59 81.31 131.12 81.78 131.78 82.11C132.43 82.44 133.22 82.56 134.14 82.48C135.12 82.4 136 82.08 136.77 81.52C137.55 80.95 138.11 80.22 138.45 79.32L138.91 79.41Z" fill="#D6AD60"/>
<path d="M144.06 81.66C144.06 81.81 144.09 81.95 144.15 82.06C144.19 82.18 144.26 82.28 144.37 82.36C144.48 82.45 144.61 82.49 144.79 82.49V82.78H140.65V82.49C140.84 82.49 140.99 82.45 141.1 82.36C141.21 82.27 141.28 82.17 141.32 82.06C141.38 81.94 141.41 81.81 141.41 81.66V70.15C141.41 70 141.38 69.86 141.32 69.75C141.28 69.65 141.21 69.56 141.1 69.48C140.99 69.39 140.85 69.35 140.65 69.35V69.03H143.5C143.65 69.03 143.79 69.09 143.9 69.2C144.02 69.32 144.07 69.45 144.07 69.6V81.66H144.06ZM142.59 67.12C142.09 67.12 141.66 66.94 141.31 66.59C140.95 66.24 140.78 65.81 140.78 65.31C140.78 64.81 140.96 64.38 141.31 64.03C141.66 63.68 142.09 63.5 142.59 63.5C143.09 63.5 143.54 63.67 143.89 64.02C144.16 64.29 144.33 64.6 144.41 64.96C144.49 65.32 144.45 65.67 144.29 66.01C144.14 66.36 143.91 66.63 143.61 66.83C143.31 67.03 142.97 67.13 142.59 67.13V67.12Z" fill="#D6AD60"/>
<path d="M158.1 81.66C158.1 81.81 158.13 81.95 158.19 82.06C158.25 82.18 158.32 82.28 158.42 82.36C158.52 82.45 158.66 82.49 158.85 82.49V82.78H156C155.85 82.78 155.71 82.72 155.6 82.61C155.49 82.5 155.43 82.36 155.43 82.21V80.22C155.22 80.8 154.96 81.27 154.64 81.63C154.32 81.99 153.99 82.29 153.63 82.51C153.27 82.73 152.91 82.88 152.52 82.97C152.13 83.06 151.77 83.1 151.43 83.1H150.94C150.67 83.1 150.35 83.08 149.98 83.04C149.61 83 149.21 82.92 148.79 82.8C148.37 82.68 147.98 82.49 147.62 82.24C147.26 81.99 146.97 81.66 146.74 81.26C146.51 80.86 146.39 80.35 146.39 79.73C146.39 79.11 146.52 78.58 146.78 78.13C147.04 77.68 147.42 77.26 147.93 76.86C148.44 76.47 149.07 76.08 149.83 75.71C150.59 75.34 151.48 74.93 152.49 74.49C153.53 74.05 154.27 73.67 154.74 73.37C155.2 73.06 155.43 72.64 155.43 72.1V71.81C155.43 71.5 155.37 71.19 155.24 70.87C155.12 70.55 154.92 70.27 154.66 70.02C154.4 69.77 154.08 69.57 153.71 69.42C153.34 69.27 152.9 69.19 152.4 69.19C151.82 69.19 151.33 69.29 150.9 69.49C150.48 69.69 150.13 69.96 149.85 70.3C149.57 70.64 149.37 71.02 149.25 71.47C149.12 71.91 149.06 72.37 149.06 72.85L146.9 72.1C147 71.81 147.17 71.48 147.43 71.09C147.69 70.71 148.05 70.34 148.51 69.98C148.97 69.63 149.55 69.33 150.25 69.09C150.95 68.85 151.8 68.73 152.8 68.73C153.8 68.73 154.6 68.86 155.28 69.13C155.95 69.4 156.5 69.75 156.92 70.18C157.34 70.61 157.64 71.08 157.83 71.59C158.01 72.1 158.1 72.6 158.1 73.1V81.65V81.66ZM155.42 73.34C155.21 73.55 154.9 73.77 154.48 73.99C154.07 74.21 153.51 74.49 152.8 74.84C152.01 75.22 151.38 75.66 150.91 76.14C150.44 76.62 150.08 77.09 149.83 77.56C149.58 78.03 149.42 78.47 149.34 78.88C149.26 79.29 149.22 79.62 149.22 79.87C149.22 80.1 149.25 80.37 149.31 80.69C149.37 81.01 149.49 81.31 149.67 81.6C149.85 81.89 150.11 82.13 150.43 82.33C150.76 82.53 151.19 82.63 151.73 82.63C152.46 82.63 153.06 82.45 153.54 82.1C154.02 81.75 154.39 81.33 154.66 80.86C154.93 80.39 155.12 79.93 155.24 79.48C155.36 79.03 155.41 78.71 155.41 78.52V73.34H155.42Z" fill="#D6AD60"/>
<path d="M164.15 81.66C164.15 81.81 164.18 81.95 164.24 82.06C164.28 82.18 164.35 82.28 164.46 82.36C164.57 82.45 164.7 82.49 164.88 82.49V82.78H160.74V82.49C160.93 82.49 161.08 82.45 161.19 82.36C161.3 82.27 161.37 82.17 161.41 82.06C161.47 81.94 161.5 81.81 161.5 81.66V63.73C161.5 63.58 161.47 63.44 161.41 63.33C161.37 63.23 161.3 63.14 161.19 63.06C161.08 62.97 160.94 62.93 160.74 62.93V62.64H163.59C163.72 62.64 163.86 62.69 163.99 62.78C164.11 62.93 164.16 63.07 164.16 63.18V81.66H164.15Z" fill="#D6AD60"/>
<path d="M182.14 71.38C183 71.78 183.82 72.17 184.59 72.53C185.36 72.89 186.04 73.31 186.63 73.77C187.22 74.23 187.69 74.77 188.04 75.38C188.39 75.99 188.56 76.74 188.56 77.62C188.56 79.39 187.92 80.74 186.63 81.68C185.34 82.62 183.57 83.09 181.31 83.09C180.29 83.09 179.41 82.98 178.65 82.76C177.89 82.54 177.25 82.28 176.72 81.98C176.19 81.68 175.77 81.39 175.44 81.09C175.11 80.79 174.88 80.58 174.75 80.44L174.4 76.93H174.72C174.99 78.04 175.35 78.97 175.8 79.71C176.25 80.45 176.76 81.03 177.34 81.47C177.92 81.91 178.54 82.2 179.23 82.38C179.91 82.55 180.63 82.64 181.37 82.64C182.87 82.64 184.04 82.28 184.88 81.55C185.72 80.82 186.15 79.9 186.15 78.79C186.15 78.12 185.95 77.53 185.56 77.02C185.17 76.51 184.68 76.07 184.11 75.68C183.53 75.3 182.92 74.96 182.25 74.66C181.59 74.36 180.98 74.09 180.42 73.84C179.96 73.63 179.4 73.37 178.74 73.08C178.08 72.78 177.43 72.4 176.81 71.94C176.19 71.48 175.66 70.92 175.23 70.26C174.8 69.6 174.58 68.8 174.58 67.86C174.58 67.02 174.74 66.26 175.05 65.59C175.37 64.92 175.82 64.34 176.42 63.85C177.01 63.36 177.73 62.99 178.56 62.73C179.39 62.47 180.33 62.34 181.37 62.34C182.52 62.3 183.62 62.48 184.67 62.89C185.72 63.29 186.65 63.89 187.48 64.67L187.85 68.24H187.53C187.15 66.47 186.47 65.13 185.49 64.2C184.51 63.27 183.16 62.8 181.43 62.8C180.76 62.8 180.14 62.89 179.57 63.07C179 63.25 178.51 63.51 178.1 63.83C177.69 64.16 177.37 64.55 177.14 65.01C176.91 65.47 176.79 65.99 176.79 66.56C176.79 67.19 176.94 67.75 177.24 68.22C177.54 68.69 177.94 69.1 178.43 69.46C178.93 69.82 179.5 70.15 180.14 70.45C180.78 70.76 181.45 71.07 182.14 71.4V71.38Z" fill="#D6AD60"/>
<path d="M197.74 82.49C198.72 82.41 199.6 82.09 200.37 81.53C201.15 80.96 201.71 80.23 202.05 79.33L202.51 79.45C202.26 80.14 201.88 80.75 201.36 81.26C200.92 81.72 200.3 82.14 199.5 82.53C198.7 82.91 197.67 83.11 196.41 83.11C195.22 83.11 194.2 82.92 193.34 82.55C192.49 82.18 191.79 81.66 191.25 81.01C190.71 80.36 190.32 79.6 190.07 78.72C189.82 77.85 189.7 76.91 189.7 75.91C189.7 74.91 189.82 74.01 190.07 73.13C190.32 72.26 190.71 71.49 191.25 70.84C191.79 70.19 192.48 69.67 193.34 69.3C194.19 68.93 195.22 68.74 196.41 68.74C197.91 68.74 199.1 69 199.99 69.53C200.88 70.06 201.56 70.69 202.02 71.42C202.48 72.15 202.78 72.91 202.93 73.69C203.07 74.48 203.15 75.12 203.15 75.62H192.56V75.91C192.56 76.83 192.66 77.71 192.86 78.54C193.06 79.37 193.37 80.1 193.78 80.71C194.19 81.32 194.73 81.79 195.38 82.12C196.03 82.45 196.82 82.57 197.74 82.49ZM196.42 69.19C195.83 69.19 195.3 69.34 194.84 69.65C194.38 69.96 193.99 70.38 193.66 70.92C193.33 71.46 193.08 72.09 192.9 72.81C192.72 73.53 192.61 74.31 192.57 75.16H200.28V75.13C200.15 73.1 199.74 71.6 199.07 70.64C198.4 69.68 197.52 69.2 196.42 69.2V69.19Z" fill="#D6AD60"/>
<path d="M208.3 71.58C208.59 70.6 209.11 69.88 209.87 69.41C210.63 68.94 211.5 68.7 212.47 68.7C212.87 68.7 213.24 68.73 213.58 68.79C213.92 68.85 214.22 68.92 214.49 69.02C214.8 69.12 215.08 69.22 215.32 69.34L213.94 71.79C213.79 71.2 213.47 70.72 212.99 70.37C212.51 70.02 211.96 69.86 211.35 69.89C210.66 69.89 210.11 70.08 209.71 70.45C209.31 70.82 209 71.23 208.79 71.67C208.54 72.21 208.38 72.81 208.3 73.48V81.65C208.3 81.8 208.33 81.94 208.39 82.05C208.43 82.17 208.5 82.27 208.61 82.35C208.72 82.44 208.85 82.48 209.03 82.48V82.77H204.89V82.48C205.08 82.48 205.23 82.44 205.34 82.35C205.45 82.26 205.52 82.16 205.56 82.05C205.62 81.93 205.65 81.8 205.65 81.65V70.14C205.65 69.99 205.62 69.85 205.56 69.74C205.52 69.64 205.45 69.55 205.34 69.47C205.23 69.38 205.09 69.34 204.89 69.34V69.02H207.74C207.89 69.02 208.03 69.08 208.14 69.19C208.26 69.31 208.31 69.44 208.31 69.59V71.58H208.3Z" fill="#D6AD60"/>
<path d="M230.95 69.02V69.34C230.49 69.32 230.07 69.43 229.68 69.67C229.3 69.91 229.02 70.24 228.85 70.66L223.18 83.09H222.95L216.96 70.14C216.81 69.81 216.65 69.6 216.49 69.49C216.33 69.38 216.13 69.33 215.9 69.33V69.01H220.5V69.33C220.23 69.33 220.05 69.39 219.95 69.52C219.85 69.64 219.82 69.79 219.86 69.97L224.29 79.53L228.32 70.72C228.47 70.37 228.47 70.06 228.31 69.77C228.15 69.48 227.8 69.34 227.26 69.34V69.02H230.94H230.95Z" fill="#D6AD60"/>
<path d="M235.24 81.66C235.24 81.81 235.27 81.95 235.33 82.06C235.37 82.18 235.44 82.28 235.55 82.36C235.66 82.45 235.79 82.49 235.97 82.49V82.78H231.83V82.49C232.02 82.49 232.17 82.45 232.28 82.36C232.39 82.27 232.46 82.17 232.5 82.06C232.56 81.94 232.59 81.81 232.59 81.66V70.15C232.59 70 232.56 69.86 232.5 69.75C232.46 69.65 232.39 69.56 232.28 69.48C232.17 69.39 232.03 69.35 231.83 69.35V69.03H234.68C234.83 69.03 234.97 69.09 235.08 69.2C235.2 69.32 235.25 69.45 235.25 69.6V81.66H235.24ZM233.77 67.12C233.27 67.12 232.84 66.94 232.49 66.59C232.13 66.24 231.96 65.81 231.96 65.31C231.96 64.81 232.14 64.38 232.49 64.03C232.84 63.68 233.27 63.5 233.77 63.5C234.27 63.5 234.72 63.67 235.07 64.02C235.34 64.29 235.51 64.6 235.59 64.96C235.67 65.32 235.63 65.67 235.47 66.01C235.32 66.36 235.09 66.63 234.79 66.83C234.49 67.03 234.15 67.13 233.77 67.13V67.12Z" fill="#D6AD60"/>
<path d="M250.26 79.41C250.01 80.1 249.63 80.72 249.11 81.25C248.67 81.71 248.05 82.13 247.25 82.52C246.45 82.9 245.42 83.1 244.16 83.1C242.97 83.1 241.95 82.91 241.09 82.54C240.24 82.17 239.54 81.65 239 81C238.46 80.35 238.07 79.59 237.82 78.71C237.57 77.84 237.45 76.9 237.45 75.9C237.45 74.9 237.57 74 237.82 73.12C238.07 72.25 238.46 71.48 239 70.83C239.54 70.18 240.23 69.66 241.09 69.29C241.94 68.92 242.97 68.73 244.16 68.73C244.97 68.73 245.68 68.81 246.3 68.97C246.92 69.13 247.47 69.36 247.94 69.65C248.41 69.94 248.81 70.27 249.15 70.64C249.49 71.01 249.77 71.41 250 71.83L248.22 73.13C248.05 72.57 247.86 72.06 247.67 71.58C247.48 71.1 247.24 70.68 246.95 70.33C246.66 69.98 246.31 69.7 245.9 69.5C245.49 69.3 244.98 69.2 244.39 69.2C243.68 69.2 243.07 69.38 242.55 69.73C242.03 70.09 241.61 70.56 241.28 71.17C240.95 71.77 240.71 72.48 240.55 73.3C240.39 74.12 240.31 74.98 240.31 75.9C240.31 76.82 240.41 77.7 240.61 78.53C240.81 79.36 241.12 80.09 241.53 80.7C241.94 81.31 242.48 81.78 243.13 82.11C243.78 82.44 244.57 82.56 245.49 82.48C246.47 82.4 247.35 82.08 248.12 81.52C248.9 80.95 249.46 80.22 249.8 79.32L250.26 79.41Z" fill="#D6AD60"/>
<path d="M259.45 82.49C260.43 82.41 261.31 82.09 262.08 81.53C262.86 80.96 263.42 80.23 263.76 79.33L264.22 79.45C263.97 80.14 263.59 80.75 263.07 81.26C262.63 81.72 262.01 82.14 261.21 82.53C260.41 82.91 259.38 83.11 258.12 83.11C256.93 83.11 255.91 82.92 255.05 82.55C254.2 82.18 253.5 81.66 252.96 81.01C252.42 80.36 252.03 79.6 251.78 78.72C251.53 77.85 251.41 76.91 251.41 75.91C251.41 74.91 251.53 74.01 251.78 73.13C252.03 72.26 252.42 71.49 252.96 70.84C253.5 70.19 254.19 69.67 255.05 69.3C255.9 68.93 256.93 68.74 258.12 68.74C259.62 68.74 260.81 69 261.7 69.53C262.59 70.06 263.27 70.69 263.73 71.42C264.19 72.15 264.49 72.91 264.64 73.69C264.78 74.48 264.86 75.12 264.86 75.62H254.27V75.91C254.27 76.83 254.37 77.71 254.57 78.54C254.77 79.37 255.08 80.1 255.49 80.71C255.9 81.32 256.44 81.79 257.09 82.12C257.74 82.45 258.53 82.57 259.45 82.49ZM258.13 69.19C257.54 69.19 257.01 69.34 256.55 69.65C256.09 69.96 255.7 70.38 255.37 70.92C255.04 71.46 254.79 72.09 254.61 72.81C254.43 73.53 254.32 74.31 254.28 75.16H261.99V75.13C261.86 73.1 261.45 71.6 260.78 70.64C260.11 69.68 259.23 69.2 258.13 69.2V69.19Z" fill="#D6AD60"/>
<path d="M273.26 75.01C274.01 75.26 274.65 75.52 275.19 75.79C275.73 76.06 276.17 76.36 276.51 76.7C276.86 77.04 277.1 77.41 277.26 77.84C277.41 78.26 277.49 78.75 277.49 79.31C277.49 79.98 277.33 80.56 277.02 81.04C276.7 81.52 276.29 81.91 275.77 82.22C275.25 82.53 274.66 82.75 274 82.9C273.34 83.04 272.67 83.12 272 83.12C270.89 83.16 269.82 82.96 268.81 82.52C267.79 82.08 266.91 81.45 266.16 80.62L267.69 79.01C267.75 79.55 267.9 80.04 268.15 80.49C268.4 80.94 268.72 81.33 269.1 81.66C269.48 81.99 269.92 82.24 270.42 82.42C270.92 82.6 271.44 82.68 271.97 82.66C272.99 82.66 273.83 82.48 274.5 82.13C275.17 81.78 275.51 81.18 275.51 80.33C275.51 79.91 275.38 79.53 275.14 79.21C274.89 78.88 274.56 78.59 274.16 78.33C273.76 78.07 273.29 77.84 272.75 77.64C272.21 77.44 271.66 77.24 271.08 77.05C270.31 76.8 269.65 76.55 269.08 76.3C268.51 76.05 268.04 75.77 267.67 75.45C267.3 75.13 267.01 74.76 266.82 74.33C266.63 73.9 266.53 73.39 266.53 72.79C266.53 72.1 266.67 71.5 266.96 70.99C267.25 70.48 267.64 70.06 268.13 69.72C268.62 69.38 269.18 69.14 269.83 68.99C270.47 68.84 271.14 68.76 271.83 68.76C272.87 68.72 273.86 68.9 274.81 69.29C275.76 69.68 276.58 70.26 277.27 71.03L275.89 72.5C275.89 72.35 275.85 72.09 275.76 71.74C275.67 71.39 275.49 71.02 275.21 70.65C274.93 70.28 274.52 69.94 273.99 69.66C273.45 69.37 272.72 69.23 271.8 69.23C271.45 69.23 271.09 69.27 270.69 69.35C270.3 69.43 269.93 69.55 269.6 69.72C269.26 69.89 268.99 70.13 268.77 70.43C268.55 70.73 268.44 71.1 268.44 71.54C268.44 72.08 268.61 72.53 268.94 72.91C269.28 73.28 269.69 73.61 270.18 73.87C270.67 74.14 271.19 74.36 271.75 74.55C272.31 74.73 272.82 74.9 273.28 75.05L273.26 75.01Z" fill="#D6AD60"/>
</svg>
