<svg width="3893" height="1189" viewBox="0 0 3893 1189" fill="none" xmlns="http://www.w3.org/2000/svg">
<path d="M1951.65 804.545C1931.86 804.966 1914.46 796.826 1899.72 783.071C1876.99 761.737 1854.81 739.842 1832.21 718.368C1786.32 674.298 1740.28 630.227 1694.25 586.296C1668.42 561.594 1642.46 536.892 1616.63 512.05C1600.21 496.47 1583.65 481.032 1567.65 465.031C1536.07 433.873 1534.66 390.644 1564.42 357.942C1587.02 333.24 1610.45 309.24 1633.61 285.099C1679.37 237.239 1725.26 189.519 1771.02 141.799C1794.46 117.377 1817.76 92.8156 1841.05 68.2538C1855.09 53.5167 1868.7 38.4989 1883.16 24.1829C1907.58 0.0421798 1936.21 -6.27365 1968.5 6.35811C1978.04 10.0073 1986.04 16.1828 1993.34 23.2004C2016.92 45.7972 2040.5 68.5345 2064.08 91.1313C2108.43 133.518 2152.78 175.904 2197.13 218.291C2229.97 249.73 2262.96 281.029 2295.94 312.468C2306.75 322.714 2317.83 332.679 2327.94 343.626C2355.59 373.241 2355.45 417.452 2327.66 447.347C2309.27 467.277 2290.32 486.646 2271.52 506.155C2225.48 554.156 2179.31 602.156 2133.27 650.297C2108.43 676.263 2083.58 702.368 2058.6 728.334C2041.62 746.158 2024.64 763.843 2007.65 781.668C1992.64 797.387 1974.11 804.686 1951.51 804.686L1951.65 804.545ZM2327.38 394.995C2328.08 377.592 2320.08 363.977 2307.87 352.328C2288.36 333.521 2268.57 314.994 2248.92 296.327C2223.66 272.327 2198.53 248.186 2173.27 224.186C2128.36 181.238 2083.44 138.29 2038.53 95.3418C2018.18 75.9731 1998.11 56.4641 1977.62 37.2357C1953.62 14.6389 1922.18 15.2003 1898.6 38.2182C1893.41 43.4112 1888.21 48.6043 1883.16 53.9377C1841.05 98.0086 1798.95 142.079 1756.7 186.15C1745.05 198.361 1745.61 196.536 1756.84 207.343C1800.63 249.309 1844.42 291.134 1888.07 333.1C1905.06 349.24 1921.9 365.521 1938.88 381.521C1944.35 386.714 1946.18 386.434 1951.51 381.1C1959.79 372.679 1967.79 363.977 1976.07 355.556C2006.95 323.415 2037.69 291.275 2068.57 259.134C2080.08 247.063 2091.72 235.133 2103.37 223.344C2107.87 218.852 2112.64 218.431 2116.85 221.94C2121.48 225.73 2122.18 230.221 2118.81 235.835C2117.83 237.519 2116.57 239.063 2115.3 240.326C2096.08 260.537 2076.99 280.748 2057.76 300.959C2032.64 327.345 2007.51 353.591 1982.39 379.837C1937.06 427.277 1891.58 474.575 1846.11 521.874C1818.04 551.208 1789.97 580.682 1761.9 610.156C1759.65 612.542 1756.28 615.069 1756 617.735C1755.72 620.402 1760.63 621.104 1762.74 623.209C1763.16 623.63 1763.58 624.051 1764 624.472C1795.72 654.789 1827.58 685.245 1859.3 715.561C1877.97 733.386 1896.21 751.492 1915.3 768.755C1928.63 780.826 1944.21 787.141 1962.74 783.633C1976.64 780.966 1987.58 773.527 1997.27 763.422C2030.53 728.614 2063.94 693.807 2097.2 658.999C2111.37 644.122 2125.55 629.244 2139.59 614.367C2144.08 609.595 2143.8 605.525 2139.3 601.314C2129.06 591.63 2118.81 581.945 2108.57 572.121C2078.53 543.348 2048.36 514.576 2018.46 485.804C2005.83 473.733 1993.34 461.663 1980.99 449.452C1976.64 445.101 1976.5 440.75 1980.14 436.54C1983.93 432.048 1988.71 431.347 1993.62 434.575C1995.58 435.838 1997.41 437.242 1999.09 438.926C2032.92 471.207 2066.88 503.629 2100.71 536.05C2118.25 552.752 2135.52 569.594 2153.2 586.156C2160.22 592.753 2160.92 592.472 2167.66 585.454C2192.08 559.77 2216.64 534.225 2241.06 508.681C2263.94 484.821 2286.96 460.961 2309.83 437.101C2320.92 425.452 2328.08 412.118 2327.66 395.416L2327.38 394.995ZM1564.56 408.469C1564.42 422.364 1568.35 434.013 1576.49 444.259C1583.51 453.101 1592.21 460.259 1600.21 468.119C1642.74 508.821 1685.12 549.524 1727.65 590.226C1740 602.016 1740.84 602.016 1752.35 589.946C1787.16 553.594 1821.97 517.243 1856.77 480.891C1879.23 457.452 1901.83 434.014 1924.42 410.575C1931.16 403.557 1931.16 402.574 1924.42 396.118C1905.9 378.293 1887.37 360.469 1868.7 342.644C1825.62 301.52 1782.53 260.257 1739.44 219.133C1732.84 212.817 1731.16 212.817 1724.84 219.554C1707.02 238.362 1689.33 257.309 1671.51 276.116C1641.33 307.696 1610.88 339.275 1580.7 370.855C1570.45 381.521 1564 394.153 1564.7 408.61L1564.56 408.469Z" fill="#1F4230"/>
<path d="M1872.49 261.797C1872.07 257.727 1874.46 254.779 1877.27 251.832C1890.32 238.358 1903.37 224.884 1916.42 211.27C1929.76 197.375 1926.81 199.761 1916.14 189.515C1902.25 176.041 1888.21 162.848 1874.18 149.374C1871.09 146.427 1868.28 143.058 1869.41 138.146C1871.37 130.005 1879.79 127.198 1886.25 132.672C1892.7 138.286 1898.74 144.181 1904.91 150.076C1914.6 159.339 1924.14 168.603 1933.69 177.866C1939.44 183.48 1942.11 183.48 1947.72 177.866C1962.18 162.988 1976.49 148.111 1990.95 133.234C1992.07 132.111 1993.06 130.988 1994.32 130.005C1998.67 126.637 2003.72 126.777 2007.51 130.286C2011.58 133.935 2012.42 138.707 2008.5 143.199C2000.78 152.322 1992.49 161.023 1984.21 169.725C1976.92 177.445 1969.48 185.024 1962.18 192.743C1957.41 197.656 1957.27 200.322 1962.18 204.954C1975.23 217.586 1988.42 230.077 2001.62 242.569C2005.27 246.077 2008.92 249.586 2011.58 253.797C2014.11 257.727 2014.25 261.797 2010.88 265.446C2007.37 269.236 2003.3 270.078 1998.95 267.13C1990.67 261.657 1984.07 254.218 1976.92 247.481C1967.51 238.639 1958.25 229.516 1948.7 220.673C1942.81 215.2 1940.7 215.2 1935.23 220.954C1920.91 235.691 1906.88 250.569 1892.56 265.306C1890.88 267.13 1888.91 268.815 1886.67 269.937C1879.79 273.727 1872.63 269.516 1872.49 261.376V261.797Z" fill="#1F4230"/>
<path d="M1895.09 542.784C1898.6 542.784 1901.27 544.468 1903.79 546.854C1929.48 571.416 1955.3 595.978 1980.99 620.54C1996.57 635.277 2012 650.154 2027.58 665.031C2030.53 667.839 2033.62 670.505 2035.3 674.295C2036.99 678.084 2036.57 681.453 2033.76 684.541C2030.95 687.769 2027.44 688.751 2023.23 687.207C2020.43 686.084 2018.18 684.4 2016.07 682.295C1986.6 654.084 1957.13 625.873 1927.65 597.662C1916.14 586.715 1904.63 575.907 1893.13 564.96C1890.6 562.574 1888.07 560.188 1886.39 557.1C1882.88 550.363 1887.51 542.784 1895.09 542.924V542.784Z" fill="#1F4230"/>
<path d="M2235.17 471.069C2234.88 474.718 2232.92 477.385 2229.83 478.929C2226.18 480.894 2222.11 481.034 2218.88 478.368C2212.57 473.034 2206.39 467.42 2200.36 461.666C2168.36 431.069 2136.36 400.331 2104.22 369.734C2100.15 365.805 2095.79 362.296 2092.57 357.664C2089.76 353.594 2089.2 349.524 2092.57 345.453C2096.22 341.243 2100.57 340.681 2105.06 343.489C2108.29 345.453 2111.37 347.98 2114.18 350.646C2146.88 381.945 2179.45 413.384 2212.15 444.823C2218.04 450.437 2223.94 456.051 2229.83 461.525C2232.64 464.192 2234.46 467.139 2235.03 470.929L2235.17 471.069Z" fill="#1F4230"/>
<path d="M1914.18 692.829C1898.18 692.829 1885.13 679.636 1885.27 663.636C1885.41 647.776 1899.58 633.6 1914.88 633.881C1930.18 634.302 1944.64 649.039 1944.49 664.057C1944.21 679.776 1930.32 692.97 1914.18 692.829ZM1915.3 655.495C1909.83 655.215 1906.6 658.022 1906.32 662.934C1906.04 667.987 1909.13 671.636 1914.04 671.776C1919.09 671.917 1922.46 668.829 1922.6 663.776C1922.74 658.583 1920.07 655.636 1915.3 655.495Z" fill="#1F4230"/>
<path d="M1978.46 566.933C1978.46 550.512 1991.09 537.319 2006.95 537.179C2022.53 537.179 2036.15 551.074 2036.15 567.214C2036.15 582.934 2022.53 596.408 2006.67 596.267C1990.81 596.127 1978.46 583.355 1978.46 566.933ZM2006.95 575.635C2012.15 575.635 2015.65 572.267 2015.65 566.933C2015.65 562.161 2012.29 558.512 2007.37 558.372C2002.18 558.372 1998.39 561.74 1998.25 566.793C1998.11 571.705 2001.76 575.495 2006.95 575.635Z" fill="#1F4230"/>
<path d="M1734.39 486.927C1734.39 467.558 1733.97 448.189 1732.14 428.961C1731.58 423.206 1729.19 421.101 1723.3 420.68C1712.49 419.698 1702.25 423.768 1691.44 423.347C1674.03 422.645 1656.63 423.066 1639.23 423.206C1635.44 423.206 1631.93 422.785 1628.42 421.662C1624.35 420.399 1621.96 417.452 1621.82 413.101C1621.68 408.89 1623.93 406.083 1627.58 404.539C1631.09 402.995 1635.02 402.434 1638.95 402.434C1666.17 402.013 1693.54 401.592 1720.77 401.311C1730.46 401.311 1732.14 399.908 1731.86 390.223C1731.16 364.679 1730.74 339.135 1730.88 313.591C1730.88 309.52 1729.89 305.591 1729.75 301.52C1729.47 294.362 1732 291.415 1738.74 289.31C1743.65 287.766 1746.74 289.45 1748.14 294.082C1749.82 299.134 1750.25 304.327 1750.39 309.52C1750.95 330.012 1751.37 350.503 1751.93 370.995C1752.07 377.03 1752.63 382.925 1752.77 388.96C1753.05 398.223 1754.6 400.188 1763.72 399.767C1786.32 398.785 1809.05 399.206 1831.65 398.785C1838.81 398.645 1845.83 397.522 1852.98 398.785C1860.28 400.048 1863.37 402.855 1863.23 408.329C1863.23 413.803 1859.3 417.171 1852 417.452C1836.7 418.013 1821.4 418.294 1806.25 418.855C1790.81 419.417 1775.37 420.259 1759.93 420.68C1754.6 420.82 1753.19 423.768 1753.19 428.119C1753.19 433.733 1753.75 439.347 1753.9 444.961C1754.18 466.996 1753.33 489.032 1755.3 511.067C1755.72 515.699 1755.72 520.33 1754.46 524.962C1753.19 529.874 1750.39 532.822 1745.05 532.682C1739.86 532.682 1736.91 529.734 1735.65 524.822C1734.39 520.05 1734.53 515.278 1734.53 510.365C1734.53 502.646 1734.53 494.927 1734.53 487.067L1734.39 486.927Z" fill="#1F4230"/>
<path d="M191.301 939.604H187.231C185.406 930.481 182.038 922.761 177.125 916.586C172.213 910.41 164.494 907.323 153.686 907.323H47.8603V1039.39H134.739C138.809 1039.11 142.458 1037.99 145.686 1036.17C148.353 1034.48 150.739 1031.96 152.985 1028.45C155.09 1024.94 156.213 1020.03 156.213 1013.57H160.704V1071.68H156.213C156.213 1065.22 155.09 1060.17 152.985 1056.8C150.879 1053.29 148.353 1050.76 145.686 1049.08C142.739 1047.25 139.23 1046.13 135.16 1045.85H47.8603V1168.24C47.8603 1170.34 48.2814 1172.31 49.1235 1173.85C49.6849 1175.54 50.6674 1176.94 52.2113 1178.06C53.7552 1179.33 55.5798 1179.89 58.1061 1179.89V1183.96H0V1179.89C2.66671 1179.89 4.772 1179.33 6.31588 1178.06C7.85976 1176.8 8.84223 1175.4 9.40365 1173.85C10.2458 1172.17 10.6668 1170.34 10.6668 1168.24V916.586C10.6668 914.48 10.2458 912.516 9.40365 910.972C8.84223 909.568 7.85976 908.305 6.31588 907.182C4.772 905.919 2.80706 905.357 0 905.357V900.866H187.792L191.441 939.604H191.301Z" fill="#1F4230"/>
<path d="M368.566 1177.5C379.373 1177.5 387.233 1174.42 392.146 1168.24C397.058 1162.07 400.426 1154.49 402.111 1145.64H406.602L402.532 1183.96H209.827V1179.89C212.494 1179.89 214.599 1179.33 216.143 1178.07C217.687 1176.8 218.669 1175.4 219.231 1173.86C220.073 1172.17 220.494 1170.35 220.494 1168.24V916.588C220.494 914.483 220.073 912.518 219.231 910.974C218.669 909.571 217.687 908.308 216.143 907.185C214.599 905.922 212.634 905.36 209.827 905.36V901.29H402.532L406.602 939.606H402.111C400.426 930.483 397.198 922.764 392.146 916.588C387.093 910.413 379.233 907.325 368.566 907.325H257.828V1034.2H344.706C348.777 1033.92 352.426 1032.8 355.654 1030.98C358.321 1029.29 360.707 1026.77 362.952 1023.26C365.057 1019.75 366.18 1014.84 366.18 1008.24H370.251V1066.35H366.18C366.18 1059.89 365.057 1054.84 362.952 1051.47C360.847 1047.96 358.321 1045.43 355.654 1043.75C352.426 1041.92 348.777 1040.8 344.706 1040.52H257.828V1177.5H368.566Z" fill="#1F4230"/>
<path d="M707.94 905.223C705.554 905.223 703.589 905.785 702.045 907.048C700.501 908.311 699.519 909.575 698.957 910.838C698.115 912.522 697.694 914.346 697.694 916.452V1168.1C697.694 1170.21 698.115 1172.17 698.957 1173.72C699.519 1175.4 700.501 1176.81 702.045 1177.93C703.589 1179.19 705.414 1179.75 707.94 1179.75V1183.82H649.834V1179.75C652.501 1179.75 654.606 1179.19 656.15 1177.93C657.694 1176.67 658.676 1175.26 659.238 1173.72C660.08 1172.03 660.501 1170.21 660.501 1168.1V923.329L561.131 1157.58H554.675L453.34 930.908V1158.28C453.62 1162.35 454.743 1165.86 456.568 1168.81C458.252 1171.47 460.778 1173.86 464.287 1176.1C467.796 1178.21 472.708 1179.33 479.165 1179.33V1183.82H421.059V1179.33C427.515 1179.33 432.568 1178.21 435.936 1176.1C439.445 1174 441.971 1171.47 443.655 1168.81C445.48 1165.86 446.603 1162.35 446.884 1158.28V924.031C446.603 922.627 446.182 920.943 445.48 918.838C444.778 916.732 443.515 914.627 441.69 912.522C439.866 910.557 437.199 908.732 433.971 907.329C430.743 905.785 426.532 905.083 421.48 905.083V900.592H478.042C481.27 900.592 483.796 902.276 485.761 905.504L575.868 1107.05L663.167 901.013L708.361 900.592V905.083L707.94 905.223Z" fill="#1F4230"/>
<path d="M1039.17 939.604H1035.1C1033.28 930.481 1029.91 922.761 1025 916.586C1020.09 910.41 1012.37 907.323 1001.56 907.323H895.733V1039.39H982.611C986.682 1039.11 990.331 1037.99 993.559 1036.17C996.226 1034.48 998.612 1031.96 1000.86 1028.45C1002.96 1024.94 1004.09 1020.03 1004.09 1013.57H1008.58V1071.68H1004.09C1004.09 1065.22 1002.96 1060.17 1000.86 1056.8C998.752 1053.29 996.226 1050.76 993.559 1049.08C990.611 1047.25 987.103 1046.13 983.032 1045.85H895.733V1168.24C895.733 1170.34 896.154 1172.31 896.996 1173.85C897.557 1175.54 898.54 1176.94 900.084 1178.06C901.628 1179.33 903.452 1179.89 905.979 1179.89V1183.96H847.873V1179.89C850.539 1179.89 852.645 1179.33 854.188 1178.06C855.732 1176.8 856.715 1175.4 857.276 1173.85C858.118 1172.17 858.539 1170.34 858.539 1168.24V916.586C858.539 914.48 858.118 912.516 857.276 910.972C856.715 909.568 855.732 908.305 854.188 907.182C852.645 905.919 850.68 905.357 847.873 905.357V900.866H1035.66L1039.31 939.604H1039.17Z" fill="#1F4230"/>
<path d="M1105.84 1168.23C1105.84 1170.34 1106.26 1172.3 1107.1 1173.85C1107.67 1175.53 1108.65 1176.93 1110.19 1178.06C1111.74 1179.32 1113.56 1179.88 1116.09 1179.88V1183.95H1057.98V1179.88C1060.65 1179.88 1062.75 1179.32 1064.3 1178.06C1065.84 1176.79 1066.82 1175.39 1067.38 1173.85C1068.23 1172.16 1068.65 1170.34 1068.65 1168.23V1006.69C1068.65 1004.58 1068.23 1002.62 1067.38 1001.07C1066.82 999.669 1065.84 998.405 1064.3 997.283C1062.75 996.019 1060.79 995.458 1057.98 995.458V990.967H1097.98C1100.09 990.967 1102.05 991.809 1103.6 993.353C1105.14 994.897 1105.98 996.862 1105.98 998.967V1168.23H1105.84ZM1085.21 964.159C1078.19 964.159 1072.16 961.633 1067.24 956.721C1062.19 951.808 1059.81 945.773 1059.81 938.755C1059.81 931.738 1062.33 925.703 1067.24 920.79C1072.16 915.878 1078.19 913.352 1085.21 913.352C1092.23 913.352 1098.54 915.738 1103.45 920.65C1107.24 924.44 1109.63 928.79 1110.75 933.843C1111.88 938.896 1111.31 943.808 1109.07 948.58C1106.96 953.492 1103.74 957.282 1099.52 960.089C1095.31 962.896 1090.54 964.3 1085.21 964.3V964.159Z" fill="#1F4230"/>
<path d="M1323.67 1168.24C1323.67 1170.34 1324.09 1172.31 1324.93 1173.85C1325.77 1175.54 1326.76 1176.94 1328.16 1178.06C1329.56 1179.33 1331.53 1179.89 1334.2 1179.89V1183.96H1276.09V1179.89C1278.76 1179.89 1280.86 1179.33 1282.12 1178.06C1283.53 1176.8 1284.37 1175.4 1284.93 1173.85C1285.77 1172.17 1286.2 1170.34 1286.2 1168.24V1030.13C1286.2 1025.78 1285.35 1021.57 1283.53 1017.22C1281.84 1012.87 1279.18 1009.08 1275.81 1005.57C1272.44 1002.06 1268.37 999.252 1263.46 997.147C1258.55 995.042 1252.93 993.919 1246.48 993.919C1238.19 993.919 1230.62 995.603 1224.02 999.112C1217.42 1002.62 1211.81 1006.83 1207.04 1011.88C1202.26 1016.94 1198.76 1022.13 1196.37 1027.88C1193.98 1033.64 1192.72 1038.55 1192.72 1042.76V1168.38C1192.72 1170.48 1193.14 1172.45 1193.98 1173.99C1194.54 1175.68 1195.53 1177.08 1197.07 1178.2C1198.61 1179.47 1200.44 1180.03 1202.97 1180.03V1184.1H1144.86V1180.03C1147.53 1180.03 1149.63 1179.47 1151.18 1178.2C1152.72 1176.94 1153.7 1175.54 1154.26 1173.99C1155.11 1172.31 1155.53 1170.48 1155.53 1168.38V1006.83C1155.53 1004.73 1155.11 1002.76 1154.26 1001.22C1153.7 999.814 1152.72 998.551 1151.18 997.428C1149.63 996.165 1147.67 995.603 1144.86 995.603V991.112H1184.86C1186.97 991.112 1188.93 991.954 1190.47 993.498C1192.02 995.042 1192.86 997.007 1192.86 999.112V1021.29C1198.47 1009.92 1206.62 1001.36 1217.28 995.182C1227.95 989.147 1239.6 986.34 1252.23 986.901C1261.35 986.901 1270.34 988.305 1278.9 990.971C1287.46 993.638 1295.18 997.568 1301.77 1002.9C1308.37 1008.09 1313.7 1014.55 1317.77 1022.27C1321.84 1029.99 1323.81 1038.83 1323.81 1049.08V1168.24H1323.67Z" fill="#1F4230"/>
<path d="M1520.72 1168.24C1520.72 1170.34 1521.14 1172.31 1521.99 1173.85C1522.83 1175.54 1523.81 1176.94 1525.22 1178.06C1526.62 1179.33 1528.58 1179.89 1531.25 1179.89V1183.96H1491.25C1489.14 1183.96 1487.18 1183.12 1485.64 1181.57C1484.09 1180.03 1483.25 1178.06 1483.25 1175.96V1148.03C1480.3 1156.17 1476.65 1162.77 1472.16 1167.82C1467.67 1172.87 1463.04 1177.08 1457.99 1180.17C1452.93 1183.26 1447.88 1185.36 1442.41 1186.63C1437.07 1187.89 1431.88 1188.45 1427.11 1188.45H1420.23C1416.44 1188.45 1411.95 1188.17 1406.76 1187.61C1401.56 1187.05 1395.95 1185.92 1390.06 1184.24C1384.16 1182.56 1378.69 1179.89 1373.63 1176.38C1368.58 1172.87 1364.51 1168.24 1361.28 1162.62C1358.05 1157.01 1356.37 1149.85 1356.37 1141.15C1356.37 1132.45 1358.2 1125.01 1361.84 1118.69C1365.49 1112.38 1370.83 1106.48 1377.98 1100.87C1385.14 1095.4 1393.99 1089.92 1404.65 1084.73C1415.32 1079.54 1427.81 1073.78 1441.99 1067.61C1456.58 1061.43 1466.97 1056.1 1473.57 1051.89C1480.02 1047.54 1483.25 1041.64 1483.25 1034.06V1029.99C1483.25 1025.64 1482.41 1021.29 1480.58 1016.8C1478.76 1012.31 1476.09 1008.38 1472.44 1004.87C1468.79 1001.36 1464.3 998.552 1459.11 996.447C1453.92 994.342 1447.74 993.219 1440.72 993.219C1432.58 993.219 1425.7 994.623 1419.67 997.43C1413.77 1000.24 1408.86 1004.03 1404.93 1008.8C1401 1013.57 1398.2 1018.9 1396.51 1025.22C1394.69 1031.4 1393.84 1037.85 1393.84 1044.59L1363.53 1034.06C1364.93 1029.99 1367.32 1025.36 1370.97 1019.89C1374.62 1014.55 1379.67 1009.36 1386.13 1004.31C1392.58 999.394 1400.72 995.184 1410.55 991.815C1420.37 988.447 1432.3 986.763 1446.34 986.763C1460.37 986.763 1471.6 988.587 1481.14 992.377C1490.55 996.166 1498.27 1001.08 1504.16 1007.11C1510.06 1013.15 1514.27 1019.75 1516.93 1026.9C1519.46 1034.06 1520.72 1041.08 1520.72 1048.1V1168.1V1168.24ZM1483.11 1051.47C1480.16 1054.41 1475.81 1057.5 1469.92 1060.59C1464.16 1063.68 1456.3 1067.61 1446.34 1072.52C1435.25 1077.85 1426.41 1084.03 1419.81 1090.76C1413.21 1097.5 1408.16 1104.1 1404.65 1110.69C1401.14 1117.29 1398.9 1123.47 1397.77 1129.22C1396.65 1134.98 1396.09 1139.61 1396.09 1143.12C1396.09 1146.34 1396.51 1150.13 1397.35 1154.62C1398.2 1159.12 1399.88 1163.33 1402.41 1167.4C1404.93 1171.47 1408.58 1174.84 1413.07 1177.64C1417.7 1180.45 1423.74 1181.85 1431.32 1181.85C1441.56 1181.85 1449.99 1179.33 1456.72 1174.41C1463.46 1169.5 1468.65 1163.61 1472.44 1157.01C1476.23 1150.41 1478.9 1143.96 1480.58 1137.64C1482.27 1131.33 1482.97 1126.84 1482.97 1124.17V1051.47H1483.11Z" fill="#1F4230"/>
<path d="M1736.45 1168.24C1736.45 1170.34 1736.87 1172.31 1737.71 1173.85C1738.55 1175.54 1739.53 1176.94 1740.94 1178.06C1742.34 1179.33 1744.31 1179.89 1746.97 1179.89V1183.96H1688.87V1179.89C1691.53 1179.89 1693.64 1179.33 1694.9 1178.06C1696.31 1176.8 1697.15 1175.4 1697.71 1173.85C1698.55 1172.17 1698.97 1170.34 1698.97 1168.24V1030.13C1698.97 1025.78 1698.13 1021.57 1696.31 1017.22C1694.62 1012.87 1691.95 1009.08 1688.59 1005.57C1685.22 1002.06 1681.15 999.252 1676.23 997.147C1671.32 995.042 1665.71 993.919 1659.25 993.919C1650.97 993.919 1643.39 995.603 1636.8 999.112C1630.2 1002.62 1624.59 1006.83 1619.81 1011.88C1615.04 1016.94 1611.53 1022.13 1609.15 1027.88C1606.76 1033.64 1605.5 1038.55 1605.5 1042.76V1168.38C1605.5 1170.48 1605.92 1172.45 1606.76 1173.99C1607.32 1175.68 1608.3 1177.08 1609.85 1178.2C1611.39 1179.47 1613.22 1180.03 1615.74 1180.03V1184.1H1557.64V1180.03C1560.3 1180.03 1562.41 1179.47 1563.95 1178.2C1565.5 1176.94 1566.48 1175.54 1567.04 1173.99C1567.88 1172.31 1568.3 1170.48 1568.3 1168.38V1006.83C1568.3 1004.73 1567.88 1002.76 1567.04 1001.22C1566.48 999.814 1565.5 998.551 1563.95 997.428C1562.41 996.165 1560.44 995.603 1557.64 995.603V991.112H1597.64C1599.74 991.112 1601.71 991.954 1603.25 993.498C1604.8 995.042 1605.64 997.007 1605.64 999.112V1021.29C1611.25 1009.92 1619.39 1001.36 1630.06 995.182C1640.73 989.147 1652.37 986.34 1665.01 986.901C1674.13 986.901 1683.11 988.305 1691.67 990.971C1700.24 993.638 1707.95 997.568 1714.55 1002.9C1721.15 1008.09 1726.48 1014.55 1730.55 1022.27C1734.62 1029.99 1736.59 1038.83 1736.59 1049.08V1168.24H1736.45Z" fill="#1F4230"/>
<path d="M1947.4 1136.66C1943.89 1146.34 1938.55 1155.05 1931.26 1162.48C1925.08 1168.94 1916.38 1174.84 1905.15 1180.31C1893.92 1185.64 1879.47 1188.45 1861.78 1188.45C1845.08 1188.45 1830.76 1185.78 1818.69 1180.59C1806.76 1175.4 1796.94 1168.1 1789.36 1158.98C1781.78 1149.85 1776.31 1139.19 1772.8 1126.84C1769.29 1114.62 1767.6 1101.43 1767.6 1087.4C1767.6 1073.36 1769.29 1060.73 1772.8 1048.38C1776.31 1036.17 1781.78 1025.36 1789.36 1016.24C1796.94 1007.11 1806.62 999.815 1818.69 994.622C1830.62 989.429 1845.08 986.763 1861.78 986.763C1873.15 986.763 1883.11 987.886 1891.82 990.131C1900.52 992.377 1908.24 995.605 1914.83 999.675C1921.43 1003.75 1927.04 1008.38 1931.82 1013.57C1936.59 1018.76 1940.52 1024.38 1943.75 1030.27L1918.76 1048.52C1916.38 1040.66 1913.71 1033.5 1911.04 1026.76C1908.38 1020.03 1905.01 1014.13 1900.94 1009.22C1896.87 1004.31 1891.96 1000.38 1886.2 997.57C1880.45 994.763 1873.29 993.359 1865.01 993.359C1855.04 993.359 1846.48 995.886 1839.18 1000.8C1831.89 1005.85 1825.99 1012.45 1821.36 1021.01C1816.73 1029.43 1813.36 1039.4 1811.11 1050.9C1808.87 1062.41 1807.74 1074.48 1807.74 1087.4C1807.74 1100.31 1809.15 1112.66 1811.96 1124.31C1814.76 1135.96 1819.11 1146.2 1824.87 1154.77C1830.62 1163.33 1838.06 1169.92 1847.32 1174.55C1856.45 1179.19 1867.54 1180.87 1880.45 1179.75C1894.2 1178.63 1906.55 1174.13 1917.36 1166.27C1928.31 1158.27 1936.17 1148.03 1940.94 1135.4L1947.4 1136.66Z" fill="#1F4230"/>
<path d="M2019.68 1168.23C2019.68 1170.34 2020.1 1172.3 2020.94 1173.85C2021.5 1175.53 2022.49 1176.93 2024.03 1178.06C2025.57 1179.32 2027.4 1179.88 2029.92 1179.88V1183.95H1971.82V1179.88C1974.49 1179.88 1976.59 1179.32 1978.13 1178.06C1979.68 1176.79 1980.66 1175.39 1981.22 1173.85C1982.06 1172.16 1982.49 1170.34 1982.49 1168.23V1006.69C1982.49 1004.58 1982.06 1002.62 1981.22 1001.07C1980.66 999.669 1979.68 998.405 1978.13 997.283C1976.59 996.019 1974.63 995.458 1971.82 995.458V990.967H2011.82C2013.92 990.967 2015.89 991.809 2017.43 993.353C2019.12 995.037 2019.82 996.862 2019.82 998.967V1168.23H2019.68ZM1999.05 964.159C1992.03 964.159 1985.99 961.633 1981.08 956.721C1976.03 951.808 1973.64 945.773 1973.64 938.755C1973.64 931.738 1976.17 925.703 1981.08 920.79C1985.99 915.878 1992.03 913.352 1999.05 913.352C2006.06 913.352 2012.38 915.738 2017.29 920.65C2021.08 924.44 2023.47 928.79 2024.59 933.843C2025.71 938.896 2025.15 943.808 2022.91 948.58C2020.8 953.492 2017.57 957.282 2013.36 960.089C2009.15 962.896 2004.38 964.3 1999.05 964.3V964.159Z" fill="#1F4230"/>
<path d="M2216.73 1168.24C2216.73 1170.34 2217.16 1172.31 2218 1173.85C2218.84 1175.54 2219.82 1176.94 2221.23 1178.06C2222.63 1179.33 2224.59 1179.89 2227.26 1179.89V1183.96H2187.26C2185.15 1183.96 2183.19 1183.12 2181.65 1181.57C2180.1 1180.03 2179.26 1178.06 2179.26 1175.96V1148.03C2176.31 1156.17 2172.66 1162.77 2168.17 1167.82C2163.68 1172.87 2159.05 1177.08 2154 1180.17C2148.94 1183.26 2143.89 1185.36 2138.42 1186.63C2132.94 1187.89 2127.89 1188.45 2123.12 1188.45H2116.24C2112.45 1188.45 2107.96 1188.17 2102.77 1187.61C2097.57 1187.05 2091.96 1185.92 2086.07 1184.24C2080.17 1182.56 2074.7 1179.89 2069.64 1176.38C2064.59 1172.87 2060.52 1168.24 2057.29 1162.62C2054.07 1157.01 2052.38 1149.85 2052.38 1141.15C2052.38 1132.45 2054.21 1125.01 2057.85 1118.69C2061.5 1112.38 2066.84 1106.48 2074 1100.87C2081.15 1095.4 2090 1089.92 2100.66 1084.73C2111.33 1079.54 2123.82 1073.78 2138 1067.61C2152.59 1061.43 2162.98 1056.1 2169.58 1051.89C2176.03 1047.54 2179.26 1041.64 2179.26 1034.06V1029.99C2179.26 1025.64 2178.42 1021.29 2176.59 1016.8C2174.91 1012.31 2172.1 1008.38 2168.45 1004.87C2164.8 1001.36 2160.31 998.552 2155.12 996.447C2149.93 994.342 2143.75 993.219 2136.73 993.219C2128.59 993.219 2121.72 994.623 2115.68 997.43C2109.79 1000.24 2104.87 1004.03 2100.94 1008.8C2097.01 1013.57 2094.21 1018.9 2092.52 1025.22C2090.7 1031.4 2089.86 1037.85 2089.86 1044.59L2059.54 1034.06C2060.94 1029.99 2063.33 1025.36 2066.98 1019.89C2070.63 1014.55 2075.68 1009.36 2082.14 1004.31C2088.59 999.394 2096.73 995.184 2106.56 991.815C2116.38 988.447 2128.31 986.763 2142.35 986.763C2156.38 986.763 2167.61 988.587 2177.15 992.377C2186.56 996.166 2194.28 1001.08 2200.17 1007.11C2206.07 1013.15 2210.28 1019.75 2212.94 1026.9C2215.47 1034.06 2216.73 1041.08 2216.73 1048.1V1168.1V1168.24ZM2179.12 1051.47C2176.17 1054.41 2171.82 1057.5 2165.93 1060.59C2160.17 1063.68 2152.31 1067.61 2142.35 1072.52C2131.26 1077.85 2122.42 1084.03 2115.82 1090.76C2109.22 1097.5 2104.17 1104.1 2100.66 1110.69C2097.15 1117.29 2094.91 1123.47 2093.78 1129.22C2092.66 1134.98 2092.1 1139.61 2092.1 1143.12C2092.1 1146.34 2092.52 1150.13 2093.36 1154.62C2094.21 1159.12 2095.89 1163.33 2098.42 1167.4C2100.94 1171.47 2104.59 1174.84 2109.08 1177.64C2113.71 1180.45 2119.75 1181.85 2127.33 1181.85C2137.58 1181.85 2146 1179.33 2152.73 1174.41C2159.47 1169.5 2164.66 1163.61 2168.45 1157.01C2172.24 1150.41 2174.91 1143.96 2176.59 1137.64C2178.28 1131.33 2178.98 1126.84 2178.98 1124.17V1051.47H2179.12Z" fill="#1F4230"/>
<path d="M2301.65 1168.24C2301.65 1170.35 2302.07 1172.31 2302.91 1173.86C2303.47 1175.54 2304.45 1176.94 2306 1178.07C2307.54 1179.33 2309.37 1179.89 2311.89 1179.89V1183.96H2253.79V1179.89C2256.45 1179.89 2258.56 1179.33 2260.1 1178.07C2261.65 1176.8 2262.63 1175.4 2263.19 1173.86C2264.03 1172.17 2264.45 1170.35 2264.45 1168.24V916.588C2264.45 914.483 2264.03 912.518 2263.19 910.974C2262.63 909.571 2261.65 908.308 2260.1 907.185C2258.56 905.922 2256.59 905.36 2253.79 905.36V901.29H2293.79C2295.61 901.29 2297.58 901.992 2299.4 903.255C2301.09 905.36 2301.79 907.325 2301.79 908.869V1168.24H2301.65Z" fill="#1F4230"/>
<path d="M2554.14 1023.96C2566.21 1029.57 2577.72 1035.04 2588.53 1040.1C2599.34 1045.15 2608.88 1051.04 2617.16 1057.5C2625.44 1063.96 2632.04 1071.54 2636.95 1080.1C2641.86 1088.66 2644.25 1099.18 2644.25 1111.54C2644.25 1136.38 2635.27 1155.33 2617.16 1168.52C2599.06 1181.71 2574.21 1188.31 2542.49 1188.31C2528.18 1188.31 2515.83 1186.76 2505.16 1183.68C2494.49 1180.59 2485.51 1176.94 2478.07 1172.73C2470.63 1168.52 2464.74 1164.45 2460.11 1160.24C2455.47 1156.03 2452.25 1153.08 2450.42 1151.12L2445.51 1101.85H2450C2453.79 1117.43 2458.84 1130.48 2465.16 1140.87C2471.47 1151.26 2478.63 1159.4 2486.77 1165.57C2494.91 1171.75 2503.62 1175.82 2513.3 1178.34C2522.84 1180.73 2532.95 1181.99 2543.34 1181.99C2564.39 1181.99 2580.81 1176.94 2592.6 1166.69C2604.39 1156.45 2610.42 1143.54 2610.42 1127.96C2610.42 1118.55 2607.62 1110.27 2602.14 1103.11C2596.67 1095.96 2589.79 1089.78 2581.79 1084.31C2573.65 1078.97 2565.09 1074.2 2555.69 1069.99C2546.42 1065.78 2537.86 1061.99 2530 1058.48C2523.55 1055.53 2515.69 1051.89 2506.42 1047.82C2497.16 1043.6 2488.04 1038.27 2479.33 1031.82C2470.63 1025.36 2463.19 1017.5 2457.16 1008.24C2451.12 998.973 2448.04 987.744 2448.04 974.551C2448.04 962.762 2450.28 952.095 2454.63 942.691C2459.12 933.288 2465.44 925.147 2473.86 918.27C2482.14 911.393 2492.25 906.199 2503.9 902.55C2515.55 898.901 2528.74 897.076 2543.34 897.076C2559.48 896.515 2574.91 899.041 2589.65 904.796C2604.39 910.41 2617.44 918.831 2629.09 929.779L2634.28 979.885H2629.79C2624.46 955.042 2614.92 936.235 2601.16 923.182C2587.41 910.129 2568.46 903.533 2544.18 903.533C2534.77 903.533 2526.07 904.796 2518.07 907.322C2510.07 909.849 2503.19 913.498 2497.44 917.989C2491.69 922.621 2487.19 928.094 2483.97 934.551C2480.74 941.007 2479.05 948.305 2479.05 956.305C2479.05 965.148 2481.16 973.007 2485.37 979.604C2489.58 986.201 2495.19 991.955 2502.07 997.008C2509.09 1002.06 2517.09 1006.69 2526.07 1010.9C2535.05 1015.25 2544.46 1019.6 2554.14 1024.24V1023.96Z" fill="#1F4230"/>
<path d="M2773.09 1179.89C2786.85 1178.76 2799.2 1174.27 2810.01 1166.41C2820.95 1158.41 2828.81 1148.17 2833.59 1135.53L2840.04 1137.22C2836.53 1146.9 2831.2 1155.46 2823.9 1162.62C2817.73 1169.08 2809.02 1174.97 2797.8 1180.45C2786.57 1185.78 2772.11 1188.59 2754.43 1188.59C2737.72 1188.59 2723.41 1185.92 2711.34 1180.73C2699.41 1175.53 2689.58 1168.24 2682 1159.11C2674.43 1149.99 2668.95 1139.32 2665.44 1126.97C2661.93 1114.76 2660.25 1101.57 2660.25 1087.53C2660.25 1073.5 2661.93 1060.87 2665.44 1048.52C2668.95 1036.3 2674.43 1025.5 2682 1016.37C2689.58 1007.25 2699.27 999.953 2711.34 994.76C2723.27 989.567 2737.72 986.9 2754.43 986.9C2775.48 986.9 2792.18 990.549 2804.67 997.988C2817.16 1005.43 2826.71 1014.27 2833.16 1024.51C2839.62 1034.76 2843.83 1045.43 2845.94 1056.38C2847.9 1067.46 2849.02 1076.45 2849.02 1083.46H2700.39V1087.53C2700.39 1100.45 2701.79 1112.8 2704.6 1124.45C2707.41 1136.1 2711.76 1146.34 2717.51 1154.9C2723.27 1163.46 2730.85 1170.06 2739.97 1174.69C2749.09 1179.32 2760.18 1181.01 2773.09 1179.89ZM2754.57 993.216C2746.29 993.216 2738.85 995.321 2732.39 999.672C2725.94 1004.02 2720.46 1009.92 2715.83 1017.5C2711.2 1025.08 2707.69 1033.92 2705.16 1044.02C2702.64 1054.13 2701.09 1065.08 2700.53 1077.01H2808.74V1076.59C2806.92 1048.09 2801.16 1027.04 2791.76 1013.57C2782.36 1000.09 2770.01 993.357 2754.57 993.357V993.216Z" fill="#1F4230"/>
<path d="M2921.31 1026.76C2925.38 1013.01 2932.67 1002.9 2943.34 996.303C2954.01 989.706 2966.22 986.338 2979.83 986.338C2985.45 986.338 2990.64 986.759 2995.41 987.601C3000.18 988.443 3004.39 989.426 3008.18 990.829C3012.54 992.233 3016.47 993.636 3019.83 995.32L3000.46 1029.71C2998.36 1021.43 2993.87 1014.69 2987.13 1009.78C2980.39 1004.86 2972.67 1002.62 2964.11 1003.04C2954.43 1003.04 2946.71 1005.71 2941.1 1010.9C2935.48 1016.09 2931.13 1021.85 2928.18 1028.02C2924.67 1035.6 2922.43 1044.02 2921.31 1053.43V1168.09C2921.31 1170.2 2921.73 1172.17 2922.57 1173.71C2923.13 1175.39 2924.11 1176.8 2925.66 1177.92C2927.2 1179.18 2929.03 1179.74 2931.55 1179.74V1183.81H2873.45V1179.74C2876.11 1179.74 2878.22 1179.18 2879.76 1177.92C2881.31 1176.66 2882.29 1175.25 2882.85 1173.71C2883.69 1172.02 2884.11 1170.2 2884.11 1168.09V1006.55C2884.11 1004.44 2883.69 1002.48 2882.85 1000.93C2882.29 999.531 2881.31 998.268 2879.76 997.145C2878.22 995.882 2876.25 995.32 2873.45 995.32V990.829H2913.45C2915.55 990.829 2917.52 991.671 2919.06 993.215C2920.74 994.899 2921.45 996.724 2921.45 998.829V1026.76H2921.31Z" fill="#1F4230"/>
<path d="M3239.21 990.838V995.329C3232.75 995.048 3226.85 996.592 3221.38 999.961C3216.05 1003.33 3212.12 1007.96 3209.73 1013.86L3130.15 1188.31H3126.92L3042.85 1006.56C3040.75 1001.93 3038.5 998.978 3036.26 997.434C3034.01 995.89 3031.2 995.189 3027.97 995.189V990.697H3092.54V995.189C3088.75 995.189 3086.22 996.031 3084.82 997.855C3083.41 999.54 3082.99 1001.64 3083.55 1004.17L3145.73 1138.35L3202.29 1014.7C3204.4 1009.79 3204.4 1005.43 3202.15 1001.36C3199.91 997.294 3194.99 995.329 3187.42 995.329V990.838H3239.07H3239.21Z" fill="#1F4230"/>
<path d="M3299.42 1168.23C3299.42 1170.34 3299.84 1172.3 3300.68 1173.85C3301.24 1175.53 3302.22 1176.93 3303.77 1178.06C3305.31 1179.32 3307.14 1179.88 3309.66 1179.88V1183.95H3251.56V1179.88C3254.22 1179.88 3256.33 1179.32 3257.87 1178.06C3259.42 1176.79 3260.4 1175.39 3260.96 1173.85C3261.8 1172.16 3262.22 1170.34 3262.22 1168.23V1006.69C3262.22 1004.58 3261.8 1002.62 3260.96 1001.07C3260.4 999.669 3259.42 998.405 3257.87 997.283C3256.33 996.019 3254.36 995.458 3251.56 995.458V990.967H3291.56C3293.66 990.967 3295.63 991.809 3297.17 993.353C3298.86 995.037 3299.56 996.862 3299.56 998.967V1168.23H3299.42ZM3278.79 964.159C3271.77 964.159 3265.73 961.633 3260.82 956.721C3255.77 951.808 3253.38 945.773 3253.38 938.755C3253.38 931.738 3255.91 925.703 3260.82 920.79C3265.73 915.878 3271.77 913.352 3278.79 913.352C3285.8 913.352 3292.12 915.738 3297.03 920.65C3300.82 924.44 3303.21 928.79 3304.33 933.843C3305.45 938.896 3304.89 943.808 3302.65 948.58C3300.54 953.492 3297.31 957.282 3293.1 960.089C3288.89 962.896 3284.12 964.3 3278.79 964.3V964.159Z" fill="#1F4230"/>
<path d="M3510.23 1136.66C3506.72 1146.34 3501.38 1155.05 3494.09 1162.48C3487.91 1168.94 3479.21 1174.84 3467.98 1180.31C3456.75 1185.64 3442.3 1188.45 3424.61 1188.45C3407.91 1188.45 3393.59 1185.78 3381.52 1180.59C3369.59 1175.4 3359.77 1168.1 3352.19 1158.98C3344.61 1149.85 3339.14 1139.19 3335.63 1126.84C3332.12 1114.62 3330.43 1101.43 3330.43 1087.4C3330.43 1073.36 3332.12 1060.73 3335.63 1048.38C3339.14 1036.17 3344.61 1025.36 3352.19 1016.24C3359.77 1007.11 3369.45 999.815 3381.52 994.622C3393.45 989.429 3407.91 986.763 3424.61 986.763C3435.98 986.763 3445.94 987.886 3454.65 990.131C3463.35 992.377 3471.07 995.605 3477.66 999.675C3484.26 1003.75 3489.88 1008.38 3494.65 1013.57C3499.42 1018.76 3503.35 1024.38 3506.58 1030.27L3481.59 1048.52C3479.21 1040.66 3476.54 1033.5 3473.88 1026.76C3471.21 1020.03 3467.84 1014.13 3463.77 1009.22C3459.7 1004.31 3454.79 1000.38 3449.03 997.57C3443.28 994.763 3436.12 993.359 3427.84 993.359C3417.87 993.359 3409.31 995.886 3402.01 1000.8C3394.72 1005.85 3388.82 1012.45 3384.19 1021.01C3379.56 1029.43 3376.19 1039.4 3373.94 1050.9C3371.7 1062.41 3370.58 1074.48 3370.58 1087.4C3370.58 1100.31 3371.98 1112.66 3374.79 1124.31C3377.59 1135.96 3381.94 1146.2 3387.7 1154.77C3393.45 1163.33 3401.03 1169.92 3410.16 1174.55C3419.28 1179.19 3430.37 1180.87 3443.28 1179.75C3457.03 1178.63 3469.38 1174.13 3480.19 1166.27C3491.14 1158.27 3499 1148.03 3503.77 1135.4L3510.23 1136.66Z" fill="#1F4230"/>
<path d="M3639.21 1179.89C3652.97 1178.76 3665.32 1174.27 3676.12 1166.41C3687.07 1158.41 3694.93 1148.17 3699.7 1135.53L3706.16 1137.22C3702.65 1146.9 3697.32 1155.46 3690.02 1162.62C3683.84 1169.08 3675.14 1174.97 3663.91 1180.45C3652.68 1185.78 3638.23 1188.59 3620.54 1188.59C3603.84 1188.59 3589.53 1185.92 3577.46 1180.73C3565.53 1175.53 3555.7 1168.24 3548.12 1159.11C3540.54 1149.99 3535.07 1139.32 3531.56 1126.97C3528.05 1114.76 3526.37 1101.57 3526.37 1087.53C3526.37 1073.5 3528.05 1060.87 3531.56 1048.52C3535.07 1036.3 3540.54 1025.5 3548.12 1016.37C3555.7 1007.25 3565.39 999.953 3577.46 994.76C3589.39 989.567 3603.84 986.9 3620.54 986.9C3641.6 986.9 3658.3 990.549 3670.79 997.988C3683.28 1005.43 3692.83 1014.27 3699.28 1024.51C3705.74 1034.76 3709.95 1045.43 3712.05 1056.38C3714.02 1067.46 3715.14 1076.45 3715.14 1083.46H3566.51V1087.53C3566.51 1100.45 3567.91 1112.8 3570.72 1124.45C3573.53 1136.1 3577.88 1146.34 3583.63 1154.9C3589.39 1163.46 3596.96 1170.06 3606.09 1174.69C3615.21 1179.32 3626.3 1181.01 3639.21 1179.89ZM3620.68 993.216C3612.4 993.216 3604.96 995.321 3598.51 999.672C3592.05 1004.02 3586.58 1009.92 3581.95 1017.5C3577.32 1025.08 3573.81 1033.92 3571.28 1044.02C3568.75 1054.13 3567.21 1065.08 3566.65 1077.01H3674.86V1076.59C3673.04 1048.09 3667.28 1027.04 3657.88 1013.57C3648.47 1000.09 3636.12 993.357 3620.68 993.357V993.216Z" fill="#1F4230"/>
<path d="M3833.04 1074.9C3843.56 1078.41 3852.55 1082.06 3860.13 1085.85C3867.71 1089.64 3873.88 1093.85 3878.65 1098.62C3883.57 1103.39 3886.93 1108.59 3889.18 1114.62C3891.28 1120.52 3892.41 1127.39 3892.41 1135.25C3892.41 1144.66 3890.16 1152.8 3885.81 1159.54C3881.32 1166.27 3875.57 1171.75 3868.27 1176.1C3860.97 1180.45 3852.69 1183.54 3843.42 1185.64C3834.16 1187.61 3824.76 1188.73 3815.35 1188.73C3799.77 1189.29 3784.76 1186.48 3770.58 1180.31C3756.27 1174.13 3743.91 1165.29 3733.39 1153.64L3754.86 1131.04C3755.7 1138.62 3757.81 1145.5 3761.32 1151.82C3764.83 1158.13 3769.32 1163.61 3774.65 1168.24C3779.98 1172.87 3786.16 1176.38 3793.18 1178.9C3800.2 1181.43 3807.49 1182.55 3814.93 1182.27C3829.25 1182.27 3841.04 1179.75 3850.44 1174.83C3859.85 1169.92 3864.62 1161.5 3864.62 1149.57C3864.62 1143.68 3862.79 1138.34 3859.42 1133.85C3855.92 1129.22 3851.28 1125.15 3845.67 1121.5C3840.06 1117.85 3833.46 1114.62 3825.88 1111.82C3818.3 1109.01 3810.58 1106.2 3802.44 1103.53C3791.63 1100.03 3782.37 1096.52 3774.37 1093.01C3766.37 1089.5 3759.77 1085.57 3754.58 1081.08C3749.39 1076.59 3745.32 1071.39 3742.65 1065.36C3739.98 1059.32 3738.58 1052.17 3738.58 1043.74C3738.58 1034.06 3740.55 1025.64 3744.62 1018.48C3748.69 1011.32 3754.16 1005.43 3761.04 1000.66C3767.91 995.884 3775.77 992.516 3784.9 990.41C3793.88 988.305 3803.28 987.182 3812.97 987.182C3827.56 986.621 3841.46 989.147 3854.79 994.621C3868.13 1000.09 3879.64 1008.24 3889.32 1019.04L3869.95 1039.67C3869.95 1037.57 3869.39 1033.92 3868.13 1029.01C3866.86 1024.1 3864.34 1018.9 3860.41 1013.71C3856.48 1008.52 3850.72 1003.74 3843.28 999.814C3835.7 995.744 3825.46 993.779 3812.55 993.779C3807.63 993.779 3802.58 994.34 3796.97 995.463C3791.49 996.586 3786.3 998.27 3781.67 1000.66C3776.9 1003.04 3773.11 1006.41 3770.02 1010.62C3766.93 1014.83 3765.39 1020.02 3765.39 1026.2C3765.39 1033.78 3767.77 1040.1 3772.41 1045.43C3777.18 1050.62 3782.93 1055.25 3789.81 1058.9C3796.69 1062.69 3803.99 1065.78 3811.84 1068.45C3819.7 1070.97 3826.86 1073.36 3833.32 1075.46L3833.04 1074.9Z" fill="#1F4230"/>
</svg>
